<?xml version="1.0" encoding="utf-8"?>
<!-- Generator: Adobe Illustrator 24.0.1, SVG Export Plug-In . SVG Version: 6.00 Build 0)  -->
<svg version="1.1" id="Layer_1" xmlns="http://www.w3.org/2000/svg" xmlns:xlink="http://www.w3.org/1999/xlink" x="0px" y="0px"
	 viewBox="0 0 480 185.5" style="enable-background:new 0 0 480 185.5;" xml:space="preserve">
<style type="text/css">
	.st0{fill:#d9d9d9;}
</style>
<g transform="matrix(1 0 0 1 1.907349e-06 0)">
	
		<image style="overflow:visible;enable-background:new    ;" width="3" height="2" xlink:href="216C541FD657C1D.jpg"  transform="matrix(0.4788 0 0 0.2671 55.3401 172.3711)">
	</image>
</g>
<path class="st0" d="M440.7,87.4c-0.6,1.4-1.2,2.8-1.8,4.3c-0.8,2.2-1.7,4.5-2.8,6.9c-0.9,2.4-1.9,4.8-2.8,7.3c-1,2.5-2,4.9-2.9,7.2
	c-1,2.4-1.9,4.7-2.8,6.9c0,0,0,0-1.5,3.6c-0.4,1.1-1.4,1.7-2.6,1.7c-1.1,0-2.2-0.7-2.6-1.7c-0.5-1.3-1-2.4-1.5-3.7
	c-0.9-2.2-1.8-4.4-2.8-6.9c-1-2.3-1.9-4.7-2.9-7.2c-1-2.4-1.9-4.9-2.9-7.3c-0.9-2.4-1.8-4.7-2.8-6.9c-0.7-1.6-1.2-3-1.8-4.4
	c-0.2-0.3-0.2-0.7-0.2-1.1c0-1.5,1.3-2.8,2.8-2.9c1.3,0.1,2.2,0.7,2.7,1.6c0,0,0,0,0.1,0.2c1,2.3,2,4.8,3,7.3
	c1.1,2.8,2.3,5.7,3.4,8.8c1.2,3.1,2.3,6,3.4,8.8c0.7,1.8,1.4,3.6,2.2,5.3c0.7-1.7,1.3-3.4,2.1-5.3c1.2-2.9,2.3-5.8,3.4-8.8
	c1.2-2.9,2.2-5.8,3.5-8.8c1-2.6,2-5.1,2.9-7.3c0,0,0,0,0.1-0.2c0.5-1,1.5-1.7,2.5-1.7c1.2,0,2.2,0.7,2.6,1.6c0,0,0,0,0.2,0.2
	c0.1,0.4,0.2,0.7,0.1,1c0,0.3,0,0.6-0.2,0.9C440.7,87.1,440.7,87.1,440.7,87.4z M276.3,125.2c1.6,0,2.8-1.3,2.8-2.9
	c0-36.1,0-36.1,0-36.1c0-1.5-1.1-2.8-2.6-2.9c-0.2,0-0.4,0-0.6,0c-1.4,0.2-2.6,1.3-2.6,2.7c0,0.1,0,0.2,0,0.2c0,28.3,0,28.3,0,28.3
	c-1.4-1.7-2.8-3.6-4.4-5.4c-2.3-2.9-4.9-5.9-7.6-9.2c-2.6-3.1-5.2-6.2-7.6-9.2c-1.7-2.2-3.4-4.2-5-6.2c-0.3-0.3-0.3-0.3-0.3-0.3
	c-0.5-0.5-1.2-0.8-1.9-0.8c-1.5,0-2.8,1.2-2.8,2.7c0,0.1,0,0.2,0,0.2c0,36.1,0,36.1,0,36.1c0.1,1.6,1.3,2.8,2.9,2.8
	c1.6,0,2.9-1.3,2.9-2.9c0-28.1,0-28.1,0-28.1c1.3,1.7,2.8,3.4,4.3,5.3c2.4,3,5,6.1,7.6,9.3c2.6,3.1,5.2,6.2,7.7,9.3
	c1.8,2.1,3.5,4.2,5,6C274.6,124.7,275.5,125.2,276.3,125.2z M313.6,123.5c-2.6,1.1-5.3,1.7-8.2,1.7c-2.8,0-5.6-0.6-8.2-1.7
	c-2.5-1.1-4.6-2.6-6.6-4.5c-1.8-1.9-3.3-4.1-4.4-6.6c-1.1-2.5-1.7-5.3-1.7-8.2c0-2.8,0.6-5.6,1.7-8.2c1.1-2.5,2.6-4.7,4.4-6.6
	c1.9-1.9,4.1-3.4,6.6-4.5c5.1-2.2,11.2-2.2,16.3,0c2.5,1.1,4.7,2.6,6.7,4.5c1.9,1.9,3.4,4.1,4.5,6.6c1.1,2.6,1.7,5.4,1.7,8.2
	c0,2.9-0.6,5.7-1.7,8.2c-1.1,2.5-2.6,4.7-4.5,6.6C318.3,121,316.1,122.5,313.6,123.5z M311.2,118.4c1.9-0.8,3.5-1.9,4.9-3.3
	c1.4-1.3,2.5-3,3.2-4.8c0.8-1.8,1.3-3.8,1.3-5.9c0-2.1-0.4-4.1-1.3-5.9c-0.7-1.8-1.8-3.5-3.2-4.8c-1.3-1.4-3-2.5-4.8-3.3
	c-1.8-0.8-3.8-1.3-5.8-1.3c-2.1,0-4.1,0.4-5.9,1.3c-1.8,0.8-3.4,1.9-4.8,3.3c-1.3,1.4-2.4,3-3.2,4.9c-0.7,1.8-1.2,3.8-1.2,5.9
	c0,2.1,0.4,4,1.2,5.8c0.8,1.8,1.9,3.5,3.2,4.8c1.4,1.4,3,2.5,4.8,3.3C303.2,120,307.6,120,311.2,118.4z M237.2,122.3
	c0-36.1,0-36.1,0-36.1c0-1.5-1.1-2.8-2.6-2.9c-0.2,0-0.4,0-0.7,0c-1.4,0.2-2.5,1.3-2.5,2.7c0,0.1-0.1,0.2,0,0.2
	c0,28.3,0,28.3,0,28.3c-1.4-1.7-2.9-3.6-4.4-5.4c-2.4-2.9-4.9-5.9-7.6-9.2c-2.5-3.1-5.1-6.2-7.6-9.2c-1.7-2.2-3.5-4.2-5.1-6.2
	c-0.2-0.3-0.2-0.3-0.2-0.3c-0.5-0.5-1.3-0.8-1.9-0.8c-1.5,0-2.8,1.2-2.8,2.7c0,0.1,0,0.2,0,0.2c0,36.1,0,36.1,0,36.1
	c0,1.6,1.3,2.8,2.9,2.8s2.8-1.3,2.9-2.9c0-28.1,0-28.1,0-28.1c1.3,1.7,2.7,3.4,4.2,5.3c2.5,3,5,6.1,7.6,9.3c2.6,3.1,5.2,6.2,7.7,9.3
	c1.7,2.1,3.5,4.2,5,6c0.5,0.7,1.3,1.2,2.2,1.2C236,125.2,237.2,123.9,237.2,122.3z M471.2,119.3c-18.9,0-18.9,0-18.9,0
	c0-12.4,0-12.4,0-12.4c16,0,16,0,16,0c1.6-0.1,2.8-1.3,2.8-2.8c0-1.5-1.2-2.8-2.6-2.8l-0.2-0.1c-16,0.1-16,0.1-16,0.1
	c0-12.3,0-12.3,0-12.3c18.9,0,18.9,0,18.9,0c0.2,0,0.4-0.1,0.7-0.2c1.3-0.2,2.1-1.4,2.1-2.7c0-1.3-0.8-2.4-2.1-2.8
	c-0.2,0-0.4-0.1-0.7-0.1c-21.9,0-21.9,0-21.9,0c-1.6,0-2.8,1.3-2.8,2.8c0,36,0,36,0,36c0,1.6,1.3,2.8,2.8,2.8c21.9,0,21.9,0,21.9,0
	c1.6,0,2.8-1.3,2.8-2.8C473.9,120.6,472.8,119.4,471.2,119.3z M40,40.6c1.9,0,3.7-0.3,5.3-1c0.1,0,0.1,0,0.1,0
	c1.7-0.8,3.4-1.8,4.7-3.2c0.8-0.8,1.5-1.7,2.1-2.6c1.3-2.3,2.2-4.8,2.2-7.6c0-3.8-1.5-7.3-3.9-9.9c-2.6-2.8-6.3-4.5-10.4-4.5
	c-2.4,0-4.7,0.6-6.7,1.7c-1.2,0.7-2.4,1.5-3.5,2.5c-1.9,2-3.2,4.4-3.8,7c-0.2,1-0.3,2.1-0.3,3.3c0,4.1,1.7,7.8,4.4,10.4
	C32.7,39,36.2,40.6,40,40.6z M406.1,123.9c-0.9-2.3-1.8-4.4-2.8-6.9c-0.9-2.3-1.8-4.7-2.8-7.1c0,0,0,0-13,0
	c-0.9,2.4-1.8,4.8-2.8,7.1c-0.9,2.3-1.8,4.6-2.8,6.8c-0.5,1.1-1.5,1.7-2.7,1.7c-1.5,0-2.8-1.3-2.8-2.8c0-0.3,0.1-0.7,0.2-1
	c0,0,0,0,0.1-0.2c0.6-1.3,1.2-2.8,1.8-4.4c0.9-2.2,1.8-4.4,2.8-6.9c1-2.4,1.9-4.9,2.9-7.3c1-2.5,2-5,2.9-7.3c1-2.4,1.9-4.8,2.8-6.9
	c0.6-1.3,1-2.4,1.5-3.6c0,0,0,0,0.1-0.2c0.5-1,1.5-1.7,2.6-1.7c1.1,0,2.1,0.7,2.6,1.7c0,0,0,0,1.5,3.8c0.9,2.2,1.8,4.5,2.8,6.9
	c1,2.3,2,4.8,2.9,7.3c1,2.4,2,4.8,2.9,7.3c1,2.4,1.9,4.7,2.8,6.9c0.7,1.6,1.2,3,1.8,4.3c0,0,0,0,0.1,0.2c0.2,0.4,0.2,0.8,0.2,1
	c0,1.6-1.3,2.8-2.8,2.8C407.6,125.6,406.6,124.9,406.1,123.9z M398.4,104.4c-0.7-2.1-1.6-4.1-2.4-6.1c-0.7-1.7-1.3-3.4-1.9-4.9
	c-0.7,1.6-1.3,3.2-2,4.9c-0.8,2-1.6,4-2.4,6.1H398.4z M340,123.5c0.2,0.6,0.5,1,1,1.3c0.4,0.3,0.9,0.5,1.5,0.6
	c0.6,0,1.1-0.1,1.6-0.5c0.5-0.3,0.9-0.7,1.2-1.3c0,0,0,0,9-21.8c0,0,0,0,9.1,21.8c0.2,0.6,0.7,1,1.2,1.3c0.5,0.3,1,0.5,1.6,0.5
	c0.5-0.1,1-0.2,1.5-0.5c0.5-0.3,0.8-0.7,1-1.3c0,0,0,0,12-36.1c0.2-0.3,0.2-0.8,0.2-1c0-0.9-0.3-1.7-1-2.3c-0.6-0.5-1.2-0.8-1.9-0.8
	c-0.7,0-1.3,0.1-1.7,0.5c-0.5,0.3-0.8,0.7-1,1.3c0,0,0,0-9.8,30c0,0,0,0-8.2-21.3c-0.2-0.6-0.6-1-1.1-1.3c-0.4-0.3-1-0.4-1.6-0.4
	c-0.6,0-1.1,0.1-1.6,0.4c-0.4,0.3-0.8,0.7-1,1.3c0,0,0,0-8.5,21.3c0,0,0,0-9.8-30c-0.2-0.5-0.5-1-1-1.3c-0.5-0.3-1.1-0.5-1.7-0.5
	c-0.8,0-1.4,0.3-2.1,0.9c-0.7,0.5-1,1.3-1,2.2c0,0.2,0.1,0.7,0.2,1C328,87.4,328,87.4,340,123.5z M194.8,123.9
	c0.2-0.4,0.4-0.9,0.4-1.4c0-0.1,0-0.2,0-0.3V86.4h0c0,0,0-0.1,0-0.2c0-0.1,0-0.2,0-0.2c0-0.5-0.2-1-0.5-1.4
	c-0.5-0.8-1.4-1.3-2.3-1.3c-0.9,0-1.8,0.5-2.3,1.3c-0.3,0.5-0.5,1.1-0.5,1.7c0,36,0,36,0,36c0,0.6,0.2,1.2,0.4,1.7
	c0.6,0.8,1.5,1.3,2.4,1.3S194.2,124.7,194.8,123.9z M156.2,66.7c-3.4-0.2-21.4,0.4-26.2,18.5c-1.8,6.8-6.1,23.1-10.1,37.5
	c-0.3-7.2-1.2-16.2-3.5-22.5c-4.4-11.9-11.2-16.9-20.9-16.9c-16,0-21.9,16.9-21.9,16.9c0.1-0.1,0.1-0.1,0.2-0.2
	c-3.4,7.9-4.9,17.3-7.7,25.6c0,0-0.8,3.1-1.7,6.6c-1.3-21.8-2.7-54.5-3-59.1c0-0.2-0.1-0.2-0.1-0.3c-1.6-13.4-11-24-23.2-22.4
	C28.7,51.7,22.9,60.9,20.8,65c0,0,0,0,0,0c-0.2,0.3-0.3,0.7-0.5,0.9c0,0,0,0,0,0.1c-0.3,0.6-0.4,0.9-0.4,0.9
	c-0.7,1.5-1.2,3.1-1.5,4.8c0,0-9.7,35.6-11.9,43.6c-0.7,2.5,0.2,6.2,4.5,6.2c4.7,0,19.1-1.7,23.4-16.9c0.6-2.1,2.4-8.9,4.1-15.3
	c0.7,18,2.2,57.4,2.2,57.4c0.1,1.8,0.3,3.7,0.7,5.5c0.3,2,2.3,14.6,11.2,19.2c0.8,0.4,1.7,0.8,2.9,1.2v0.5h1.4v-0.1
	c13.7,3.2,25.2-7.5,29.9-21.4c0.8-3,4-14.7,7.7-28.2l2.1,28.5c0.1,0.2,0.2,0.4,0.2,0.6c-0.1-0.2-0.2-0.4-0.3-0.7
	c0,0,1.8,17.3,14.1,20.5c14.1,3.7,24-6.8,28.8-20.9c2.1-7.7,19.5-71.5,21.4-78.6C161.3,70.5,159.9,66.9,156.2,66.7z M270.8,145.9
	h-0.1c-0.4,0-0.6,0.2-0.6,0.7v9c0,0.4,0.2,0.7,0.6,0.7h0.1c0.4,0,0.6-0.2,0.6-0.7v-9C271.4,146.1,271.2,145.9,270.8,145.9z
	 M254.4,147.2c0.9,0.9,1.3,2.2,1.3,3.7v0.1c0,0.2,0,0.3-0.1,0.4c-0.1,0.1-0.2,0.1-0.4,0.1h-7.9c0.1,1.1,0.4,2,1.2,2.7
	c0.7,0.7,1.6,1,2.7,1c1.6,0,2.7-0.6,3.5-1.8c0,0,0.1,0,0.2,0c0.1,0,0.3,0.1,0.4,0.3c0.1,0.1,0.2,0.3,0.2,0.5c0,0.4-0.4,0.9-1.2,1.5
	c-0.8,0.5-1.8,0.8-3.1,0.8c-1.6,0-2.8-0.5-3.8-1.5c-1-1-1.5-2.3-1.5-3.8c0-1.6,0.5-2.8,1.5-3.9c1-1,2.2-1.5,3.7-1.5
	C252.4,145.8,253.5,146.2,254.4,147.2z M254.2,150.3c-0.1-1-0.4-1.8-1-2.4c-0.6-0.6-1.4-0.9-2.3-0.9c-1,0-1.8,0.3-2.4,0.9
	c-0.7,0.6-1.1,1.4-1.3,2.4H254.2z M268,154.9h-6.7v-11.9c0-0.4-0.2-0.7-0.6-0.7h-0.2c-0.4,0-0.6,0.2-0.6,0.7v12.5
	c0,0.2,0.1,0.4,0.2,0.6c0.2,0.2,0.4,0.2,0.6,0.2h7.3c0.4,0,0.7-0.2,0.7-0.6v-0.1C268.7,155.1,268.4,154.9,268,154.9z M459.1,147.3
	c1,1,1.5,2.3,1.5,3.9c0,1.5-0.5,2.8-1.5,3.8c-1,1-2.2,1.5-3.8,1.5c-1.5,0-2.8-0.5-3.8-1.5c-1-1-1.5-2.3-1.5-3.9
	c0-1.5,0.5-2.8,1.5-3.8c1-1,2.2-1.5,3.8-1.5C456.9,145.8,458.1,146.3,459.1,147.3z M459.2,151.1c0-1.2-0.4-2.2-1.1-3
	c-0.7-0.8-1.6-1.2-2.7-1.2c-1.1,0-2,0.4-2.7,1.2c-0.7,0.8-1.1,1.8-1.1,3c0,1.2,0.4,2.2,1.1,3c0.7,0.8,1.7,1.2,2.7,1.2
	c1.1,0,2-0.4,2.7-1.2C458.8,153.3,459.2,152.3,459.2,151.1z M229.7,145.8c-1.5,0-2.7,0.6-3.5,1.9v-0.3c0-0.9-0.3-1.4-0.9-1.4
	c-0.1,0-0.2,0-0.2,0c-0.1,0-0.1,0-0.2,0.1s-0.1,0-0.1,0.1v9.5c0,0.4,0.2,0.7,0.6,0.7h0.1c0.4,0,0.6-0.2,0.6-0.7v-6.4
	c0.3-0.7,0.8-1.2,1.3-1.6c0.6-0.4,1.3-0.6,2-0.6c0.9,0,1.5,0.3,2,0.9c0.5,0.6,0.7,1.4,0.7,2.4v5.3c0,0.4,0.2,0.7,0.6,0.7h0.2
	c0.4,0,0.6-0.2,0.6-0.7v-5.4c0-1.4-0.3-2.5-1-3.3C232,146.2,231,145.8,229.7,145.8z M209.4,145.8c-1.5,0-2.6,0.6-3.4,1.9V143
	c0-0.9-0.3-1.3-0.9-1.3c-0.1,0-0.2,0-0.2,0c-0.1,0-0.1,0-0.2,0.1c0,0-0.1,0-0.1,0.1v13.8c0,0.4,0.2,0.7,0.6,0.7h0.1
	c0.4,0,0.6-0.2,0.6-0.7v-5.1c0-1,0.3-1.9,0.9-2.5c0.6-0.6,1.4-0.9,2.4-0.9c0.9,0,1.5,0.3,2,0.9c0.5,0.6,0.7,1.4,0.7,2.4v5.3
	c0,0.4,0.2,0.7,0.6,0.7h0.2c0.4,0,0.6-0.2,0.6-0.7v-5.4c0-1.4-0.3-2.5-1-3.3C211.8,146.2,210.8,145.8,209.4,145.8z M202.5,152.5
	c-0.1,0-0.2,0-0.2,0c-0.3,0.8-0.9,1.5-1.7,2c-0.8,0.5-1.7,0.7-2.8,0.7c-1.6,0-2.9-0.6-3.9-1.7c-1-1.1-1.5-2.6-1.5-4.3
	c0-1.7,0.5-3.2,1.5-4.3c1-1.1,2.3-1.7,3.9-1.7c0.9,0,1.7,0.2,2.5,0.6c0.8,0.4,1.4,1,1.8,1.7c0,0,0.1,0,0.2,0c0.1,0,0.3-0.1,0.4-0.3
	c0.1-0.1,0.2-0.3,0.2-0.6c0-0.5-0.5-1.1-1.5-1.8c-1-0.6-2.2-1-3.7-1c-2,0-3.7,0.7-5,2c-1.3,1.3-1.9,3.1-1.9,5.2
	c0,2.1,0.6,3.8,1.9,5.2c1.3,1.3,2.9,2,5,2c1.6,0,2.9-0.4,3.9-1.1c1-0.7,1.5-1.4,1.5-2c0-0.2-0.1-0.4-0.2-0.6
	C202.8,152.6,202.6,152.5,202.5,152.5z M222.4,146.8c0.7,0.7,1.1,1.7,1.1,2.9v6.4c0,0,0,0-0.1,0.1c0,0-0.1,0-0.2,0.1
	c-0.1,0-0.2,0-0.2,0c-0.6,0-0.9-0.5-0.9-1.3v-0.4c-0.9,1.3-2.1,1.9-3.8,1.9c-1.1,0-2-0.3-2.6-0.8c-0.6-0.5-0.9-1.2-0.9-2.1
	c0-1.2,0.6-2,1.7-2.6c1.2-0.5,2.9-0.8,5.3-0.9h0.2v-0.4c0-0.9-0.2-1.5-0.7-2c-0.5-0.5-1.2-0.7-2.1-0.7c-1.5,0-2.6,0.6-3.3,1.9
	c0,0-0.1,0-0.2,0c-0.1,0-0.3-0.1-0.4-0.2c-0.1-0.1-0.2-0.3-0.2-0.5c0-0.5,0.4-1,1.2-1.5c0.8-0.6,1.8-0.8,3-0.8
	C220.7,145.8,221.7,146.1,222.4,146.8z M222.1,151.2l-0.6,0c-1.8,0.1-3.1,0.3-4,0.6c-0.9,0.4-1.3,0.9-1.3,1.7c0,0.5,0.2,0.9,0.6,1.2
	c0.4,0.3,0.9,0.5,1.6,0.5c1.1,0,1.9-0.3,2.6-0.9c0.7-0.6,1-1.3,1-2.2V151.2z M270.8,141.6c-0.6,0-0.9,0.3-0.9,0.9
	c0,0.6,0.3,0.9,0.9,0.9c0.6,0,0.9-0.3,0.9-0.9C271.7,141.9,271.4,141.6,270.8,141.6z M466.8,145.8c-1.5,0-2.7,0.6-3.5,1.9v-0.3
	c0-0.9-0.3-1.4-0.9-1.4c-0.1,0-0.2,0-0.2,0c-0.1,0-0.1,0-0.2,0.1c0,0-0.1,0-0.1,0.1v9.5c0,0.4,0.2,0.7,0.6,0.7h0.1
	c0.4,0,0.6-0.2,0.6-0.7v-6.4c0.3-0.7,0.8-1.2,1.3-1.6c0.6-0.4,1.3-0.6,2-0.6c0.9,0,1.5,0.3,2,0.9c0.5,0.6,0.7,1.4,0.7,2.4v5.3
	c0,0.4,0.2,0.7,0.6,0.7h0.2c0.4,0,0.6-0.2,0.6-0.7v-5.4c0-1.4-0.3-2.5-1-3.3C469.1,146.2,468.1,145.8,466.8,145.8z M244.4,157.7
	c0,1-0.5,1.7-1.4,2.2c-0.9,0.5-2.2,0.8-3.8,0.8c-3.2,0-4.8-0.9-4.8-2.8c0-0.7,0.3-1.4,0.9-1.9c0.6-0.5,1.4-0.9,2.4-1.1
	c-0.3-0.3-0.5-0.6-0.5-1c0-0.3,0.2-0.7,0.5-1c-0.8-0.3-1.4-0.7-1.9-1.3c-0.5-0.6-0.7-1.3-0.7-2.1c0-1.1,0.4-2,1.2-2.7s1.8-1.1,3-1.1
	c1,0,1.8,0.3,2.6,0.8l0.7-1.1c0.3-0.4,0.6-0.6,1-0.6c0.2,0,0.3,0,0.5,0.2c0.1,0.1,0.2,0.2,0.3,0.3c0,0.1,0.1,0.2,0.1,0.2l-1.7,1.9
	c0.6,0.7,0.8,1.4,0.8,2.2c0,1.1-0.4,1.9-1.2,2.7c-0.8,0.7-1.8,1.1-3,1.1c-0.3,0-0.4,0-0.6,0c-0.1,0.1-0.1,0.3-0.2,0.5
	c0,0.1,0,0.2,0.1,0.3c0,0.1,0.1,0.1,0.2,0.2c0.1,0.1,0.2,0.1,0.3,0.2c0.1,0,0.2,0.1,0.4,0.1c0.2,0,0.3,0.1,0.5,0.1
	c0.2,0,0.4,0.1,0.6,0.2c0.3,0.1,0.5,0.1,0.7,0.2C243.4,155.5,244.4,156.4,244.4,157.7z M239.4,152.2c0.8,0,1.5-0.2,2-0.7
	c0.5-0.5,0.8-1.1,0.8-1.9c0-0.8-0.3-1.4-0.8-1.9c-0.5-0.5-1.2-0.7-2-0.7c-0.8,0-1.5,0.2-2,0.7c-0.5,0.5-0.8,1.1-0.8,1.9
	c0,0.8,0.3,1.4,0.8,1.9C237.9,151.9,238.6,152.2,239.4,152.2z M243.1,157.7c0-0.2,0-0.3-0.1-0.5c-0.1-0.1-0.2-0.3-0.3-0.4
	c-0.2-0.1-0.3-0.2-0.5-0.3c-0.1-0.1-0.4-0.2-0.6-0.2c-0.3-0.1-0.5-0.1-0.6-0.2c-0.2,0-0.4-0.1-0.7-0.2c-0.3-0.1-0.6-0.1-0.7-0.2
	c-1,0.1-1.9,0.3-2.6,0.6c-0.7,0.4-1.1,0.9-1.1,1.5c0,1.1,1.2,1.7,3.5,1.7c1.2,0,2.1-0.2,2.8-0.5
	C242.7,158.8,243.1,158.3,243.1,157.7z M302.4,151.8c-0.2-0.2-0.4-0.3-0.6-0.5c-0.2-0.1-0.5-0.2-0.8-0.3c-0.4-0.1-0.6-0.2-0.8-0.2
	c-0.2-0.1-0.5-0.1-0.9-0.2c-1-0.2-1.8-0.5-2.2-0.7c-0.4-0.2-0.6-0.6-0.6-1.1c0-0.5,0.2-1,0.7-1.3c0.4-0.3,1.1-0.5,1.9-0.5
	c1.3,0,2.3,0.5,3,1.5c0,0,0.1,0,0.2,0c0.1-0.1,0.3-0.1,0.4-0.3c0.1-0.1,0.2-0.3,0.2-0.4c0-0.4-0.3-0.9-1-1.3
	c-0.7-0.4-1.6-0.6-2.7-0.6c-1.2,0-2.1,0.3-2.8,0.9c-0.7,0.6-1.1,1.3-1.1,2.2c0,0.4,0.1,0.8,0.2,1.1c0.2,0.3,0.3,0.5,0.5,0.7
	c0.2,0.2,0.5,0.3,0.9,0.5c0.4,0.2,0.7,0.3,0.9,0.3c0.2,0.1,0.6,0.1,1,0.2c0.5,0.1,0.8,0.2,1.1,0.3c0.2,0.1,0.5,0.1,0.8,0.2
	c0.3,0.1,0.5,0.2,0.6,0.3c0.1,0.1,0.3,0.3,0.3,0.4c0.1,0.2,0.1,0.4,0.1,0.6c0,0.5-0.2,1-0.7,1.3c-0.5,0.3-1.1,0.5-1.9,0.5
	c-1.5,0-2.7-0.6-3.5-1.7c0,0-0.1,0-0.2,0c-0.4,0.1-0.6,0.4-0.6,0.7c0,0.5,0.4,0.9,1.2,1.4c0.8,0.5,1.8,0.7,3,0.7s2.2-0.3,2.9-0.8
	c0.7-0.6,1.1-1.3,1.1-2.2c0-0.3-0.1-0.6-0.2-0.9C302.7,152.2,302.6,152,302.4,151.8z M368.7,157.7c0,1-0.5,1.7-1.4,2.2
	c-0.9,0.5-2.2,0.8-3.8,0.8c-3.2,0-4.8-0.9-4.8-2.8c0-0.7,0.3-1.4,0.9-1.9c0.6-0.5,1.4-0.9,2.4-1.1c-0.3-0.3-0.5-0.6-0.5-1
	c0-0.3,0.2-0.7,0.5-1c-0.8-0.3-1.4-0.7-1.9-1.3c-0.5-0.6-0.7-1.3-0.7-2.1c0-1.1,0.4-2,1.2-2.7c0.8-0.7,1.8-1.1,3-1.1
	c1,0,1.8,0.3,2.6,0.8l0.7-1.1c0.3-0.4,0.6-0.6,1-0.6c0.2,0,0.3,0,0.5,0.2c0.1,0.1,0.2,0.2,0.3,0.3c0,0.1,0.1,0.2,0.1,0.2l-1.7,1.9
	c0.6,0.7,0.8,1.4,0.8,2.2c0,1.1-0.4,1.9-1.2,2.7c-0.8,0.7-1.8,1.1-3,1.1c-0.3,0-0.4,0-0.6,0c-0.1,0.1-0.1,0.3-0.2,0.5
	c0,0.1,0,0.2,0.1,0.3c0,0.1,0.1,0.1,0.2,0.2c0.1,0.1,0.2,0.1,0.3,0.2c0.1,0,0.2,0.1,0.4,0.1c0.2,0,0.4,0.1,0.5,0.1
	c0.2,0,0.4,0.1,0.6,0.2c0.3,0.1,0.5,0.1,0.7,0.2C367.7,155.5,368.7,156.4,368.7,157.7z M363.7,152.2c0.8,0,1.5-0.2,2-0.7
	c0.5-0.5,0.8-1.1,0.8-1.9c0-0.8-0.3-1.4-0.8-1.9c-0.5-0.5-1.2-0.7-2-0.7c-0.8,0-1.5,0.2-2,0.7c-0.5,0.5-0.8,1.1-0.8,1.9
	c0,0.8,0.3,1.4,0.8,1.9C362.2,151.9,362.9,152.2,363.7,152.2z M367.4,157.7c0-0.2,0-0.3-0.1-0.5c-0.1-0.1-0.2-0.3-0.3-0.4
	c-0.2-0.1-0.3-0.2-0.5-0.3c-0.1-0.1-0.4-0.2-0.6-0.2c-0.3-0.1-0.5-0.1-0.6-0.2c-0.2,0-0.4-0.1-0.7-0.2c-0.3-0.1-0.6-0.1-0.7-0.2
	c-1,0.1-1.9,0.3-2.6,0.6c-0.7,0.4-1.1,0.9-1.1,1.5c0,1.1,1.2,1.7,3.5,1.7c1.2,0,2.1-0.2,2.8-0.5C367,158.8,367.4,158.3,367.4,157.7z
	 M384,142.3h-0.2c-0.4,0-0.6,0.2-0.6,0.7v12.7c0,0.4,0.2,0.7,0.6,0.7h0.2c0.4,0,0.6-0.2,0.6-0.7v-12.7
	C384.6,142.5,384.4,142.3,384,142.3z M375,145.8c-1.5,0-2.6,0.6-3.4,1.9V143c0-0.9-0.3-1.3-0.9-1.3c-0.1,0-0.2,0-0.2,0
	c-0.1,0-0.1,0-0.2,0.1c0,0-0.1,0-0.1,0.1v13.8c0,0.4,0.2,0.7,0.6,0.7h0.1c0.4,0,0.6-0.2,0.6-0.7v-5.1c0-1,0.3-1.9,0.9-2.5
	c0.6-0.6,1.4-0.9,2.4-0.9c0.9,0,1.5,0.3,2,0.9c0.5,0.6,0.7,1.4,0.7,2.4v5.3c0,0.4,0.2,0.7,0.6,0.7h0.2c0.4,0,0.6-0.2,0.6-0.7v-5.4
	c0-1.4-0.3-2.5-1-3.3C377.3,146.2,376.3,145.8,375,145.8z M445.6,154.5c-0.1,0-0.1,0-0.1,0c-0.4,0.5-0.9,0.8-1.6,0.8
	c-0.6,0-1-0.2-1.2-0.5c-0.2-0.4-0.3-0.9-0.3-1.7v-5.8h2.7c0.4,0,0.7-0.2,0.7-0.5v-0.1c0-0.4-0.2-0.5-0.7-0.5h-2.7v-1.8
	c0-0.4-0.2-0.7-0.6-0.7h-0.1c-0.4,0-0.6,0.2-0.6,0.7v1.8H440c-0.4,0-0.7,0.2-0.7,0.5v0.1c0,0.4,0.2,0.5,0.7,0.5h0.9v6
	c0,2.2,0.9,3.3,2.8,3.3c0.6,0,1.1-0.1,1.5-0.4c0.4-0.3,0.6-0.6,0.6-0.9c0-0.2,0-0.3-0.1-0.4C445.7,154.6,445.7,154.6,445.6,154.5z
	 M401.1,145.8c-1.5,0-2.7,0.6-3.5,1.9v-0.3c0-0.9-0.3-1.4-0.9-1.4c-0.1,0-0.2,0-0.2,0c-0.1,0-0.1,0-0.2,0.1c0,0-0.1,0-0.1,0.1v9.5
	c0,0.4,0.2,0.7,0.6,0.7h0.1c0.4,0,0.6-0.2,0.6-0.7v-6.4c0.3-0.7,0.8-1.2,1.3-1.6c0.6-0.4,1.3-0.6,2-0.6c0.9,0,1.5,0.3,2,0.9
	c0.5,0.6,0.7,1.4,0.7,2.4v5.3c0,0.4,0.2,0.7,0.6,0.7h0.2c0.4,0,0.6-0.2,0.6-0.7v-5.4c0-1.4-0.3-2.5-1-3.3
	C403.4,146.2,402.4,145.8,401.1,145.8z M415.6,147.3c1,1,1.5,2.3,1.5,3.9c0,1.5-0.5,2.8-1.5,3.8c-1,1-2.2,1.5-3.8,1.5
	c-1.5,0-2.8-0.5-3.8-1.5c-1-1-1.5-2.3-1.5-3.9c0-1.5,0.5-2.8,1.5-3.8c1-1,2.2-1.5,3.8-1.5C413.3,145.8,414.6,146.3,415.6,147.3z
	 M415.7,151.1c0-1.2-0.4-2.2-1.1-3c-0.7-0.8-1.6-1.2-2.7-1.2c-1.1,0-2,0.4-2.7,1.2c-0.7,0.8-1.1,1.8-1.1,3c0,1.2,0.4,2.2,1.1,3
	c0.7,0.8,1.7,1.2,2.7,1.2c1.1,0,2-0.4,2.7-1.2C415.3,153.3,415.7,152.3,415.7,151.1z M390.9,145.8c-1.5,0-2.7,0.6-3.5,1.9v-0.3
	c0-0.9-0.3-1.4-0.9-1.4c-0.1,0-0.2,0-0.2,0c-0.1,0-0.1,0-0.2,0.1c0,0-0.1,0-0.1,0.1v9.5c0,0.4,0.2,0.7,0.6,0.7h0.1
	c0.4,0,0.6-0.2,0.6-0.7v-6.4c0.3-0.7,0.8-1.2,1.3-1.6c0.6-0.4,1.3-0.6,2-0.6c0.9,0,1.5,0.3,2,0.9c0.5,0.6,0.7,1.4,0.7,2.4v5.3
	c0,0.4,0.2,0.7,0.6,0.7h0.2c0.4,0,0.6-0.2,0.6-0.7v-5.4c0-1.4-0.3-2.5-1-3.3C393.2,146.2,392.2,145.8,390.9,145.8z M436.9,146.8
	c0.7,0.7,1.1,1.7,1.1,2.9v6.4c0,0,0,0-0.1,0.1c0,0-0.1,0-0.2,0.1c-0.1,0-0.2,0-0.2,0c-0.6,0-0.9-0.5-0.9-1.3v-0.4
	c-0.9,1.3-2.1,1.9-3.8,1.9c-1.1,0-2-0.3-2.6-0.8c-0.6-0.5-0.9-1.2-0.9-2.1c0-1.2,0.6-2,1.7-2.6c1.2-0.5,2.9-0.8,5.3-0.9h0.2v-0.4
	c0-0.9-0.2-1.5-0.7-2c-0.5-0.5-1.2-0.7-2.1-0.7c-1.5,0-2.6,0.6-3.3,1.9c0,0-0.1,0-0.2,0c-0.1,0-0.3-0.1-0.4-0.2
	c-0.1-0.1-0.2-0.3-0.2-0.5c0-0.5,0.4-1,1.2-1.5c0.8-0.6,1.8-0.8,3-0.8C435.2,145.8,436.2,146.1,436.9,146.8z M436.6,151.2l-0.6,0
	c-1.8,0.1-3.1,0.3-4,0.6c-0.9,0.4-1.3,0.9-1.3,1.7c0,0.5,0.2,0.9,0.6,1.2c0.4,0.3,0.9,0.5,1.6,0.5c1.1,0,1.9-0.3,2.6-0.9
	c0.7-0.6,1-1.3,1-2.2V151.2z M357.4,145.9h-0.2c-0.4,0-0.6,0.2-0.6,0.7v6.4c-0.3,0.7-0.8,1.2-1.3,1.6c-0.6,0.4-1.2,0.6-1.9,0.6
	c-0.9,0-1.6-0.3-2.1-0.9c-0.5-0.6-0.8-1.4-0.8-2.4v-5.3c0-0.4-0.2-0.7-0.6-0.7h-0.2c-0.4,0-0.6,0.2-0.6,0.7v5.4c0,1.4,0.3,2.5,1,3.3
	c0.7,0.8,1.7,1.2,3,1.2c1.5,0,2.7-0.6,3.5-1.9v0.3c0,0.9,0.3,1.4,0.9,1.4c0.1,0,0.2,0,0.2,0c0.1,0,0.1,0,0.2-0.1c0,0,0.1,0,0.1-0.1
	v-9.5C358,146.1,357.8,145.9,357.4,145.9z M427.6,146c-0.1-0.1-0.2-0.1-0.4-0.1c-0.2,0-0.4,0.1-0.5,0.2c-0.1,0.1-0.3,0.4-0.5,0.8
	l-3.1,8l-3-8c-0.2-0.4-0.3-0.7-0.5-0.8c-0.1-0.1-0.3-0.2-0.6-0.2c-0.1,0-0.3,0-0.4,0.1c-0.1,0.1-0.2,0.1-0.2,0.2
	c0,0.1-0.1,0.1-0.1,0.1l3.8,9.5c0.1,0.2,0.2,0.3,0.3,0.4c0.1,0.1,0.3,0.1,0.7,0.1c0.3,0,0.6,0,0.7-0.1c0.1-0.1,0.2-0.2,0.3-0.4
	l3.7-9.4c0,0,0-0.1-0.1-0.1C427.8,146.1,427.7,146.1,427.6,146z M448,141.6c-0.6,0-0.9,0.3-0.9,0.9c0,0.6,0.3,0.9,0.9,0.9
	c0.6,0,0.9-0.3,0.9-0.9C448.9,141.9,448.6,141.6,448,141.6z M282,146c-0.1-0.1-0.2-0.1-0.4-0.1c-0.2,0-0.4,0.1-0.5,0.2
	c-0.1,0.1-0.3,0.4-0.5,0.8l-3.1,8l-3-8c-0.2-0.4-0.3-0.7-0.5-0.8c-0.1-0.1-0.3-0.2-0.6-0.2c-0.1,0-0.3,0-0.4,0.1
	c-0.1,0.1-0.2,0.1-0.2,0.2c0,0.1-0.1,0.1-0.1,0.1l3.8,9.5c0.1,0.2,0.2,0.3,0.3,0.4c0.1,0.1,0.3,0.1,0.7,0.1c0.3,0,0.6,0,0.7-0.1
	c0.1-0.1,0.2-0.2,0.3-0.4l3.7-9.4c0,0,0-0.1-0.1-0.1C282.2,146.1,282.1,146.1,282,146z M346.3,147.3c1,1,1.5,2.3,1.5,3.9
	c0,1.5-0.5,2.8-1.5,3.8c-1,1-2.2,1.5-3.8,1.5c-1.5,0-2.8-0.5-3.8-1.5c-1-1-1.5-2.3-1.5-3.9c0-1.5,0.5-2.8,1.5-3.8
	c1-1,2.2-1.5,3.8-1.5C344,145.8,345.3,146.3,346.3,147.3z M346.3,151.1c0-1.2-0.4-2.2-1.1-3c-0.7-0.8-1.6-1.2-2.7-1.2
	c-1.1,0-2,0.4-2.7,1.2c-0.7,0.8-1.1,1.8-1.1,3c0,1.2,0.4,2.2,1.1,3c0.7,0.8,1.7,1.2,2.7,1.2c1.1,0,2-0.4,2.7-1.2
	C346,153.3,346.3,152.3,346.3,151.1z M318,142.4h-10.1c-0.4,0-0.7,0.2-0.7,0.6v0.1c0,0.4,0.2,0.6,0.7,0.6h4.3v11.9
	c0,0.4,0.2,0.7,0.6,0.7h0.2c0.4,0,0.6-0.2,0.6-0.7v-11.9h4.3c0.4,0,0.7-0.2,0.7-0.6V143C318.6,142.6,318.4,142.4,318,142.4z
	 M292.3,147.2c0.9,0.9,1.3,2.2,1.3,3.7v0.1c0,0.2,0,0.3-0.1,0.4c-0.1,0.1-0.2,0.1-0.4,0.1h-7.9c0.1,1.1,0.4,2,1.2,2.7
	c0.7,0.7,1.6,1,2.7,1c1.6,0,2.7-0.6,3.5-1.8c0,0,0.1,0,0.2,0c0.1,0,0.3,0.1,0.4,0.3c0.1,0.1,0.2,0.3,0.2,0.5c0,0.4-0.4,0.9-1.2,1.5
	c-0.8,0.5-1.8,0.8-3.1,0.8c-1.6,0-2.8-0.5-3.8-1.5c-1-1-1.5-2.3-1.5-3.8c0-1.6,0.5-2.8,1.5-3.9c1-1,2.2-1.5,3.7-1.5
	C290.3,145.8,291.5,146.2,292.3,147.2z M292.2,150.3c-0.1-1-0.4-1.8-1-2.4c-0.6-0.6-1.4-0.9-2.3-0.9c-1,0-1.8,0.3-2.4,0.9
	c-0.7,0.6-1.1,1.4-1.3,2.4H292.2z M448.1,145.9h-0.1c-0.4,0-0.6,0.2-0.6,0.7v9c0,0.4,0.2,0.7,0.6,0.7h0.1c0.4,0,0.6-0.2,0.6-0.7v-9
	C448.7,146.1,448.5,145.9,448.1,145.9z M324.9,145.8c-1.5,0-2.6,0.6-3.4,1.9V143c0-0.9-0.3-1.3-0.9-1.3c-0.1,0-0.2,0-0.2,0
	c-0.1,0-0.1,0-0.2,0.1c0,0-0.1,0-0.1,0.1v13.8c0,0.4,0.2,0.7,0.6,0.7h0.1c0.4,0,0.6-0.2,0.6-0.7v-5.1c0-1,0.3-1.9,0.9-2.5
	c0.6-0.6,1.4-0.9,2.4-0.9c0.9,0,1.5,0.3,2,0.9c0.5,0.6,0.7,1.4,0.7,2.4v5.3c0,0.4,0.2,0.7,0.6,0.7h0.2c0.4,0,0.6-0.2,0.6-0.7v-5.4
	c0-1.4-0.3-2.5-1-3.3C327.2,146.2,326.2,145.8,324.9,145.8z M334.4,145.8c-1.4,0-2.3,0.7-2.7,2.1v-0.6c0-0.9-0.3-1.3-0.9-1.3
	c-0.1,0-0.2,0-0.2,0c-0.1,0-0.1,0-0.2,0.1c0,0-0.1,0-0.1,0.1v9.5c0,0.4,0.2,0.7,0.6,0.7h0.1c0.4,0,0.6-0.2,0.6-0.7v-4
	c0-1.4,0.2-2.5,0.6-3.3c0.4-0.8,1-1.2,1.9-1.2c0.5,0,0.9,0.1,1.2,0.4c0,0,0.1,0,0.1-0.1c0.1,0,0.1-0.1,0.2-0.3
	c0.1-0.1,0.1-0.3,0.1-0.4C335.9,146.1,335.4,145.8,334.4,145.8z"/>
</svg>
