<?xml version="1.0" standalone="no"?>
<!DOCTYPE svg PUBLIC "-//W3C//DTD SVG 20010904//EN"
 "http://www.w3.org/TR/2001/REC-SVG-20010904/DTD/svg10.dtd">
<svg version="1.0" xmlns="http://www.w3.org/2000/svg"
 width="266.000000pt" height="200.000000pt" viewBox="0 0 266.000000 200.000000"
 preserveAspectRatio="xMidYMid meet">

<g transform="translate(0.000000,200.000000) scale(0.100000,-0.100000)"
fill="#d9d9d9" stroke="none">
<path d="M547 1873 c14 -43 42 -132 64 -198 21 -66 52 -163 69 -215 17 -52 65
-202 107 -332 l77 -238 202 0 202 0 -18 53 c-10 28 -71 219 -135 422 -65 204
-129 392 -143 419 -29 53 -85 106 -147 139 -34 18 -61 22 -172 25 l-131 4 25
-79z"/>
<path d="M1110 1945 c0 -28 174 -542 195 -575 40 -63 101 -117 173 -152 60
-30 77 -33 174 -37 l108 -3 -25 68 c-13 38 -52 159 -86 269 -73 236 -98 293
-155 345 -78 72 -113 84 -256 88 -71 2 -128 1 -128 -3z"/>
<path d="M1850 1944 c0 -4 14 -49 30 -101 17 -51 30 -107 30 -123 0 -50 -24
-94 -63 -115 -21 -11 -37 -23 -37 -26 0 -4 9 -37 21 -74 l21 -67 43 4 c91 11
188 84 225 169 35 83 36 129 5 240 l-28 99 -124 0 c-68 0 -123 -3 -123 -6z"/>
<path d="M40 495 c0 -4 34 -108 76 -231 l77 -225 45 3 45 3 46 137 c26 75 49
139 52 143 4 3 28 -59 55 -137 l49 -143 45 -3 45 -3 74 218 c41 120 76 224 79
231 3 8 -11 12 -50 12 l-54 0 -12 -47 c-26 -100 -79 -256 -84 -247 -3 5 -27
73 -52 152 l-48 142 -43 0 -44 0 -48 -150 c-26 -82 -50 -150 -53 -150 -3 0
-25 66 -50 148 l-45 147 -52 3 c-29 2 -53 0 -53 -3z"/>
<path d="M800 270 l0 -230 50 0 50 0 0 230 0 230 -50 0 -50 0 0 -230z"/>
<path d="M1000 270 l0 -230 50 0 50 0 0 75 0 75 40 0 c38 0 41 -3 90 -75 l51
-75 54 0 c30 0 55 3 55 7 0 4 -22 39 -50 79 l-50 72 45 45 c43 43 45 47 45
105 0 51 -4 65 -27 93 -42 50 -76 59 -223 59 l-130 0 0 -230z m260 120 c11
-11 20 -31 20 -45 0 -46 -32 -65 -110 -65 l-70 0 0 65 0 65 70 0 c57 0 74 -4
90 -20z"/>
<path d="M1462 273 l3 -228 173 -3 172 -2 0 45 0 45 -125 0 -125 0 0 50 0 50
110 0 110 0 0 45 0 45 -110 0 -110 0 0 45 0 44 123 3 122 3 3 43 3 42 -176 0
-175 0 2 -227z"/>
<path d="M2100 269 l0 -230 48 3 47 3 3 228 2 227 -50 0 -50 0 0 -231z"/>
<path d="M2250 455 l0 -45 70 0 70 0 0 -185 0 -185 50 0 50 0 0 185 0 185 75
0 75 0 0 45 0 45 -195 0 -195 0 0 -45z"/>
<path d="M1907 314 c-4 -4 -7 -25 -7 -46 l0 -38 46 0 45 0 -3 43 c-3 40 -4 42
-38 45 -20 2 -39 0 -43 -4z"/>
</g>
</svg>
