<?xml version="1.0" standalone="no"?>
<!DOCTYPE svg PUBLIC "-//W3C//DTD SVG 20010904//EN"
 "http://www.w3.org/TR/2001/REC-SVG-20010904/DTD/svg10.dtd">
<svg version="1.0" xmlns="http://www.w3.org/2000/svg"
 width="500pt" height="250pt" viewBox="0 125 500 250"
 preserveAspectRatio="xMidYMid meet">

<g transform="translate(0,500) scale(0.100000,-0.100000)"
fill="#d9d9d9" stroke="none">
<path d="M1420 3064 c-106 -22 -205 -77 -286 -158 -232 -231 -233 -595 -4
-827 118 -119 243 -172 410 -173 176 -1 294 48 420 174 117 117 170 244 170
410 0 167 -52 292 -170 410 -149 150 -339 208 -540 164z m-4 -105 c-106 -43
-180 -113 -228 -215 -108 -230 -3 -470 232 -530 141 -36 305 31 378 154 23 40
27 58 27 122 0 62 -5 84 -28 127 -73 140 -243 164 -344 50 -98 -112 -44 -275
98 -301 88 -16 175 70 154 152 l-6 26 -15 -30 c-8 -16 -28 -38 -43 -47 -77
-45 -169 18 -141 97 34 98 156 112 209 24 83 -135 -28 -288 -210 -288 -111 0
-196 56 -242 159 -16 36 -18 60 -15 125 6 101 35 164 108 229 66 59 142 88
247 95 140 8 249 -34 338 -130 67 -72 96 -144 103 -253 8 -148 -36 -273 -135
-377 -102 -106 -203 -150 -348 -150 -336 0 -571 300 -487 623 41 156 162 282
332 345 56 20 70 15 16 -7z"/>
<path d="M1446 2810 c-66 -20 -138 -91 -165 -163 -16 -43 -13 -143 6 -185 l16
-37 8 62 c21 171 135 278 297 278 39 0 72 1 72 3 0 2 -24 14 -52 27 -55 26
-126 31 -182 15z"/>
<path d="M1940 2698 c17 -56 12 -171 -10 -241 -36 -117 -137 -221 -258 -268
-71 -27 -204 -30 -271 -5 -24 9 -46 15 -47 13 -10 -10 111 -69 170 -83 158
-40 343 37 432 177 60 95 71 259 24 366 -27 65 -54 92 -40 41z"/>
<path d="M3370 2883 c0 -177 -1 -185 -18 -170 -66 60 -207 76 -297 33 -183
-87 -224 -329 -79 -468 115 -110 302 -105 406 10 75 83 73 69 76 445 l3 337
-46 0 -45 0 0 -187z m-135 -192 c79 -36 127 -118 128 -221 1 -119 -69 -202
-171 -202 -120 0 -210 103 -212 240 -1 153 124 243 255 183z"/>
<path d="M2477 2756 c-183 -66 -248 -307 -121 -455 57 -66 114 -94 204 -99 88
-5 140 12 202 67 37 32 78 103 78 134 0 26 -57 23 -65 -3 -9 -29 -53 -79 -84
-94 -41 -22 -105 -28 -150 -16 -73 20 -144 100 -152 175 l-4 30 232 3 232 2
-5 33 c-3 17 -19 60 -35 93 -46 97 -122 144 -231 144 -35 -1 -80 -7 -101 -14z
m166 -62 c45 -23 66 -44 88 -86 10 -21 19 -40 19 -43 0 -3 -81 -5 -181 -5
-161 0 -180 2 -175 16 3 9 6 20 6 24 0 18 65 83 95 96 41 18 110 17 148 -2z"/>
<path d="M3697 2756 c-65 -24 -119 -73 -155 -141 l-27 -50 -3 -307 -3 -308 51
0 51 0 -3 155 c-2 85 -2 155 0 155 2 0 24 -12 49 -27 36 -21 62 -27 124 -31
74 -4 84 -2 144 27 106 53 158 136 159 256 0 114 -60 212 -159 260 -51 25
-175 31 -228 11z m156 -60 c155 -64 190 -314 57 -402 -73 -49 -174 -31 -238
41 -100 114 -77 308 43 361 39 17 97 17 138 0z"/>
</g>
</svg>
