<svg xmlns="http://www.w3.org/2000/svg" xmlns:xlink="http://www.w3.org/1999/xlink" width="248" height="64" viewBox="0 0 248 64">
  <defs>
    <polygon id="wire-it-logo-white-a" points="0 0 46 0 46 64 0 64"/>
    <polygon id="wire-it-logo-white-c" points="0 0 40 0 40 47 0 47"/>
    <polygon id="wire-it-logo-white-e" points="0 64 248 64 248 0 0 0"/>
  </defs>
  <g fill="none" fill-rule="evenodd">
    <mask id="wire-it-logo-white-b" fill="#d9d9d9">
      <use xlink:href="#wire-it-logo-white-a"/>
    </mask>
    <path fill="#d9d9d9" d="M9.9601421,0 L0,0 L20.9075946,64.0000776 L46,64.0000776 L29.8771344,14.3205772 C27.108636,5.78980224 19.056223,0 9.9601421,0" mask="url(#wire-it-logo-white-b)"/>
    <g transform="translate(35)">
      <mask id="wire-it-logo-white-d" fill="#d9d9d9">
        <use xlink:href="#wire-it-logo-white-c"/>
      </mask>
      <path fill="#d9d9d9" d="M9.68192773,0.00214643401 L-7.43510454e-15,-5.17213014e-05 L9.55465958,29.7896076 C12.8420495,40.0387007 22.4440586,47 33.2941588,47 L40,47 L29.4677431,14.3277832 C26.7172862,5.79570801 18.7183587,0.00421528607 9.68192773,0.00214643401" mask="url(#wire-it-logo-white-d)"/>
    </g>
    <path fill="#d9d9d9" d="M97.1344468,8.21917893 L94.650412,0 L79.3341506,0 L82.5598804,10.4984448 C84.4639508,16.8959218 83.0325823,21.7667374 77,23.0798237 L80.0175144,33 C92.1883963,33 100.839059,20.4765972 97.1344468,8.21917893"/>
    <polygon fill="#d9d9d9" points="136.448 47 131.654 47 126 30.804 120.346 47 115.552 47 107 22.071 112.904 22.071 118.093 38.832 123.71 22 128.433 22 134.052 38.832 139.24 22.071 145 22.071"/>
    <mask id="wire-it-logo-white-f" fill="#d9d9d9">
      <use xlink:href="#wire-it-logo-white-e"/>
    </mask>
    <polygon fill="#d9d9d9" points="149 47 154 47 154 22 149 22" mask="url(#wire-it-logo-white-f)"/>
    <path fill="#d9d9d9" d="M175.563491,30.5357293 C175.563491,28.1787318 173.891391,26.9644857 171.16386,26.9644857 L165.598811,26.9644857 L165.598811,34.1433678 L171.272001,34.1433678 C173.999664,34.1433678 175.563491,32.7152849 175.563491,30.606965 L175.563491,30.5357293 Z M175.453767,47 L170.000156,39.0000933 L165.598811,39.0000933 L165.598811,47 L160,47 L160,22 L171.63678,22 C177.635845,22 181.236682,25.1067863 181.236682,30.2503976 L181.236682,30.3217629 C181.236682,34.3573342 179.017282,36.8934572 175.781356,38.0711788 L182,47 L175.453767,47 Z" mask="url(#wire-it-logo-white-f)"/>
    <polygon fill="#d9d9d9" points="184 47 184 22 202.821 22 202.821 26.893 189.454 26.893 189.454 31.964 201.217 31.964 201.217 36.857 189.454 36.857 189.454 42.107 203 42.107 203 47" mask="url(#wire-it-logo-white-f)"/>
    <polygon fill="#d9d9d9" points="208 37 213 37 213 32 208 32" mask="url(#wire-it-logo-white-f)"/>
    <polygon fill="#d9d9d9" points="219 47 224 47 224 22 219 22" mask="url(#wire-it-logo-white-f)"/>
    <polygon fill="#d9d9d9" points="240.288 27.072 240.288 47 234.712 47 234.712 27.072 227 27.072 227 22 248 22 248 27.072" mask="url(#wire-it-logo-white-f)"/>
  </g>
</svg>
