<?xml version="1.0" standalone="no"?>
<!DOCTYPE svg PUBLIC "-//W3C//DTD SVG 20010904//EN"
 "http://www.w3.org/TR/2001/REC-SVG-20010904/DTD/svg10.dtd">
<svg version="1.0" xmlns="http://www.w3.org/2000/svg"
 width="193.000000pt" height="200.000000pt" viewBox="0 0 193.000000 200.000000"
 preserveAspectRatio="xMidYMid meet">

<g transform="translate(0.000000,200.000000) scale(0.100000,-0.100000)"
fill="#d9d9d9" stroke="none">
<path d="M345 1967 c-100 -57 -122 -179 -49 -267 36 -42 74 -60 129 -60 87 0
153 49 175 130 39 146 -123 272 -255 197z"/>
<path d="M380 1511 c-74 -23 -150 -92 -189 -174 -18 -39 -181 -617 -181 -644
0 -25 32 -43 79 -43 76 0 140 27 198 85 76 77 98 153 98 345 0 137 -2 148 -27
203 -30 63 -29 79 1 20 37 -73 42 -122 61 -573 20 -466 25 -513 68 -596 77
-151 270 -168 403 -35 70 71 98 130 149 313 32 119 40 165 40 232 0 143 -37
258 -97 305 -20 16 -22 19 -6 11 45 -21 94 -111 107 -195 3 -22 13 -143 21
-270 18 -266 34 -337 91 -403 50 -59 86 -75 164 -76 48 0 76 5 105 21 57 30
122 103 155 176 32 69 290 1001 290 1047 0 45 -36 64 -102 55 -80 -11 -163
-51 -209 -103 -45 -52 -47 -56 -174 -527 -47 -176 -97 -342 -109 -370 -23 -51
-71 -115 -86 -115 -4 0 4 13 20 30 44 47 66 105 115 299 l45 179 -16 89 c-36
209 -130 313 -281 313 -43 0 -77 -7 -108 -21 -61 -29 -139 -116 -164 -184 -20
-54 -88 -293 -131 -464 -26 -103 -57 -166 -102 -206 l-33 -30 26 30 c47 54 59
80 92 211 l33 129 -13 270 c-16 346 -26 452 -51 507 -53 121 -177 191 -282
159z"/>
</g>
</svg>
