<?xml version="1.0" encoding="UTF-8"?>
<svg version="1.1" xmlns="http://www.w3.org/2000/svg" width="370" height="120">
<path d="M0 0 C2.66905383 1.01239973 3.81191333 1.67084832 5.25 4.1875 C7.98979356 8.59073965 12.19329022 13.12442329 17.25390625 14.703125 C17.83011719 14.80109375 18.40632813 14.8990625 19 15 C19.33 14.34 19.66 13.68 20 13 C22.875 12.1875 22.875 12.1875 26 12 C27.625 13.4375 27.625 13.4375 29 15 C30.32 15 31.64 15 33 15 C35.25 16 35.25 16 37 17 C37.2475 16.030625 37.495 15.06125 37.75 14.0625 C39 11 39 11 40.875 9.9375 C43.71960718 10.02116492 44.91725102 11.1404027 47 13 C46.125 17.875 46.125 17.875 45 19 C43.33382885 19.04063832 41.66611905 19.042721 40 19 C40 19.99 40 20.98 40 22 C41.98 22 43.96 22 46 22 C46.66 20.35 47.32 18.7 48 17 C49.32 17 50.64 17 52 17 C52.2475 16.46375 52.495 15.9275 52.75 15.375 C56.98850575 7.32183908 56.98850575 7.32183908 60.75 6.125 C61.4925 6.08375 62.235 6.0425 63 6 C62.1875 7.9375 62.1875 7.9375 61 10 C60.01 10.33 59.02 10.66 58 11 C57.731875 11.680625 57.46375 12.36125 57.1875 13.0625 C56.04054747 15.89969836 54.82183138 17.62663976 52.9375 20 C50.62959265 22.96490287 49.24118732 25.1410028 49 29 C52.85658398 26.84921278 56.54319097 24.76544722 60 22 C59.82374165 24.37948772 59.30280227 25.70225849 57.59765625 27.37890625 C56.09350908 28.62115486 54.54870149 29.81376056 53 31 C53.66 32.65 54.32 34.3 55 36 C53.02 36.495 53.02 36.495 51 37 C51 37.99 51 38.98 51 40 C52.65 40 54.3 40 56 40 C56 40.66 56 41.32 56 42 C53.36 42 50.72 42 48 42 C48 42.66 48 43.32 48 44 C51.63 44.99 55.26 45.98 59 47 C59 47.99 59 48.98 59 50 C56.03 49.505 56.03 49.505 53 49 C53.495 49.45375 53.99 49.9075 54.5 50.375 C56 52 56 52 56 54 C53.0280615 52.87548273 50.66559313 51.77706209 48 50 C47.505 50.99 47.505 50.99 47 52 C46.01 52.495 46.01 52.495 45 53 C46.45351015 54.98287496 47.91247287 56.96129387 49.375 58.9375 C49.7875 59.50146484 50.2 60.06542969 50.625 60.64648438 C52.8769369 63.80848952 52.8769369 63.80848952 56 66 C56 67.32 56 68.64 56 70 C51.62527474 68.46375927 49.49019295 65.04212055 46.875 61.4375 C43.99345776 57.10895906 43.99345776 57.10895906 40 54 C40 54.66 40 55.32 40 56 C40.99 56.33 41.98 56.66 43 57 C43.495 59.475 43.495 59.475 44 62 C42.68 61.67 41.36 61.34 40 61 C40 60.34 40 59.68 40 59 C37.69 59 35.38 59 33 59 C32.67 67.91 32.34 76.82 32 86 C30.02 86.495 30.02 86.495 28 87 C26.61691219 84.23382437 26.88789804 81.98982 26.90234375 78.8984375 C26.90556641 77.68671875 26.90878906 76.475 26.91210938 75.2265625 C26.92048828 73.95554687 26.92886719 72.68453125 26.9375 71.375 C26.94201172 70.09625 26.94652344 68.8175 26.95117188 67.5 C26.96298797 64.33328708 26.97946185 61.16666644 27 58 C26.34 58 25.68 58 25 58 C25.00785522 59.71098877 25.00785522 59.71098877 25.01586914 61.45654297 C25.03393869 65.67951679 25.04543919 69.90248718 25.05493164 74.12548828 C25.05996737 75.95492121 25.06679627 77.78435009 25.07543945 79.61376953 C25.08753824 82.23991898 25.09323583 84.86601532 25.09765625 87.4921875 C25.10281754 88.31306854 25.10797882 89.13394958 25.11329651 89.97970581 C25.11387171 95.77225659 25.11387171 95.77225659 24 98 C22.0625 97.625 22.0625 97.625 20 97 C18.38698227 93.77396455 18.87946401 90.25289962 18.90234375 86.7109375 C18.9037587 85.89251373 18.90517365 85.07408997 18.90663147 84.23086548 C18.9122371 81.61220675 18.92479052 78.99363296 18.9375 76.375 C18.94251428 74.60156373 18.94707731 72.82812613 18.95117188 71.0546875 C18.96135826 66.70306581 18.9809325 62.35162818 19 58 C18.67 64.6 18.34 71.2 18 78 C14 79 14 79 12 78 C11.67 69.75 11.34 61.5 11 53 C9.68 52.67 8.36 52.34 7 52 C6.505 52.495 6.01 52.99 5.5 53.5 C5.005 53.995 4.51 54.49 4 55 C1.8125 54.6875 1.8125 54.6875 0 54 C0.33 52.68 0.66 51.36 1 50 C2.98 49.505 2.98 49.505 5 49 C5 48.01 5 47.02 5 46 C4.34 46 3.68 46 3 46 C3 45.01 3 44.02 3 43 C1.35 43 -0.3 43 -2 43 C-1.67 42.01 -1.34 41.02 -1 40 C0.485 39.505 0.485 39.505 2 39 C1.67 36.36 1.34 33.72 1 31 C0.01 30.67 -0.98 30.34 -2 30 C-1.505 28.515 -1.505 28.515 -1 27 C-0.34 27 0.32 27 1 27 C0.65453125 26.43539062 0.3090625 25.87078125 -0.046875 25.2890625 C-1.19920477 22.52158199 -0.96219054 21.25263475 -0.25 18.375 C-0.06953125 17.59898438 0.1109375 16.82296875 0.296875 16.0234375 C1 14 1 14 3 12 C5.625 12.375 5.625 12.375 8 13 C8 14.32 8 15.64 8 17 C9.65 17 11.3 17 13 17 C13 16.34 13 15.68 13 15 C12.43796875 14.74863281 11.8759375 14.49726563 11.296875 14.23828125 C8.65032996 12.81148741 6.5354106 11.14055514 4.25 9.1875 C3.45078125 8.52105469 2.6515625 7.85460937 1.828125 7.16796875 C0 5 0 5 -0.265625 2.23828125 C-0.17796875 1.49964844 -0.0903125 0.76101563 0 0 Z " fill="#d9d9d9" transform="translate(274,13)"/>
<path d="M0 0 C3 0.25 3 0.25 5 2.25 C5.125 4.875 5.125 4.875 5 7.25 C5.99 6.92 6.98 6.59 8 6.25 C13.37560544 7.94232023 17.18390833 10.13745263 20 15.25 C20.68047931 18.44315633 20.65610103 21.49673187 20.5625 24.75 C20.57345703 25.57886719 20.58441406 26.40773438 20.59570312 27.26171875 C20.53073008 32.71079127 19.64353602 35.96270624 16 40.25 C11.95681033 42.88686283 8.80288222 44.03414404 4 43.25 C-0.21594681 41.02270734 -3.24052727 38.76330849 -5 34.25 C-5.25878906 30.89013672 -5.25878906 30.89013672 -5.265625 26.9296875 C-5.26753845 26.2298172 -5.2694519 25.5299469 -5.27142334 24.80886841 C-5.27278057 23.33465209 -5.26911645 21.86042363 -5.26074219 20.38623047 C-5.25000335 18.12570558 -5.26066908 15.86596955 -5.2734375 13.60546875 C-5.27211645 12.17187324 -5.2695552 10.73827823 -5.265625 9.3046875 C-5.26336914 7.99999512 -5.26111328 6.69530273 -5.25878906 5.35107422 C-4.90939799 1.1643144 -4.19960949 0.34996746 0 0 Z M4 16.25 C3.90013025 19.09335048 3.86122119 21.90697163 3.875 24.75 C3.87113281 25.54792969 3.86726563 26.34585938 3.86328125 27.16796875 C3.4910039 31.0183932 3.4910039 31.0183932 5 34.25 C7.5 34.41666667 7.5 34.41666667 10 34.25 C11.8855253 32.3644747 11.13246689 29.67231169 11.13671875 27.16796875 C11.13285156 26.37003906 11.12898438 25.57210937 11.125 24.75 C11.12886719 23.95207031 11.13273437 23.15414062 11.13671875 22.33203125 C11.5089961 18.4816068 11.5089961 18.4816068 10 15.25 C6.71105107 14.84371033 6.71105107 14.84371033 4 16.25 Z " fill="#d9d9d9" transform="translate(18,32.75)"/>
<path d="M0 0 C3.02089981 1.7475743 5.41608883 3.83217766 7 7 C7.37323917 10.57498217 7.41711313 14.15823545 7.5 17.75 C7.55414063 18.74 7.60828125 19.73 7.6640625 20.75 C7.79747217 27.87788833 7.79747217 27.87788833 5.56665039 31.0168457 C2.52867437 33.77086814 -0.3230975 35.83584005 -4.5625 35.6875 C-9.44039884 35.36230674 -11.68499001 33.48076049 -15 30 C-16.57455739 26.85088521 -16.34799118 24.47991184 -16 21 C-13.86891244 17.35652772 -12.65041474 15.57681719 -8.6640625 14.18359375 C-6.44437873 13.68293952 -4.25671669 13.28516246 -2 13 C-2.33 11.68 -2.66 10.36 -3 9 C-3.99 9 -4.98 9 -6 9 C-8.20142332 11.4390706 -8.20142332 11.4390706 -10 14 C-14.875 13.125 -14.875 13.125 -16 12 C-16.47474082 8.58186607 -16.15862868 7.24360833 -14.25 4.3125 C-10.10661133 0.0540172 -5.9530204 -1.15404042 0 0 Z M-5 21 C-6.77190909 22.35444301 -6.77190909 22.35444301 -8 24 C-7.67 24.99 -7.34 25.98 -7 27 C-5.35 27 -3.7 27 -2 27 C-1.67 25.35 -1.34 23.7 -1 22 C-2.83700789 21.22757731 -2.83700789 21.22757731 -5 21 Z " fill="#d9d9d9" transform="translate(102,40)"/>
<path d="M0 0 C2.90996544 1.86185708 5.42868293 3.85736586 7 7 C7.24230023 10.97413102 7.18519769 14.95680807 7.1875 18.9375 C7.19974609 20.04802734 7.21199219 21.15855469 7.22460938 22.30273438 C7.22750977 23.89891602 7.22750977 23.89891602 7.23046875 25.52734375 C7.23457764 26.50437256 7.23868652 27.48140137 7.24291992 28.48803711 C7 31 7 31 5 34 C0.25 33.25 0.25 33.25 -2 31 C-2.31884766 28.66162109 -2.31884766 28.66162109 -2.4140625 25.7734375 C-2.45273438 24.7421875 -2.49140625 23.7109375 -2.53125 22.6484375 C-2.5621875 21.56820312 -2.593125 20.48796875 -2.625 19.375 C-2.66367188 18.28703125 -2.70234375 17.1990625 -2.7421875 16.078125 C-2.83666247 13.38558835 -2.92222431 10.69306243 -3 8 C-4.32 8 -5.64 8 -7 8 C-7.01981934 8.71655762 -7.03963867 9.43311523 -7.06005859 10.17138672 C-7.15509519 13.4063063 -7.26486019 16.64056094 -7.375 19.875 C-7.4059375 21.00292969 -7.436875 22.13085938 -7.46875 23.29296875 C-7.52675781 24.90751953 -7.52675781 24.90751953 -7.5859375 26.5546875 C-7.6173584 27.54968262 -7.6487793 28.54467773 -7.68115234 29.56982422 C-8 32 -8 32 -10 34 C-12.5625 34.1875 -12.5625 34.1875 -15 34 C-17.70489706 31.29510294 -16.28451831 23.3876198 -16.3125 19.75 C-16.34150391 18.50863281 -16.37050781 17.26726563 -16.40039062 15.98828125 C-16.40876953 14.79074219 -16.41714844 13.59320313 -16.42578125 12.359375 C-16.44036377 11.26077148 -16.45494629 10.16216797 -16.4699707 9.03027344 C-15.8920087 5.30369456 -14.59612821 3.68261594 -12 1 C-7.83215528 -1.47817794 -4.62768861 -1.21781279 0 0 Z " fill="#d9d9d9" transform="translate(213,41)"/>
<path d="M0 0 C2.86258553 1.90395224 5.43590539 3.87181078 7 7 C7.26385085 10.09784879 7.23151467 13.20465323 7.25 16.3125 C7.270625 17.16779297 7.29125 18.02308594 7.3125 18.90429688 C7.34256839 23.75658408 7.2103888 27.09137061 4 31 C0.68308754 33.31412497 -1.99685493 34.27808394 -6 34.125 C-10.21473123 33.29048962 -12.10459057 31.38654575 -14.75634766 28.1171875 C-16.97075665 24.34738876 -16.83180433 20.70957923 -16.6875 16.4375 C-16.70232422 15.61314453 -16.71714844 14.78878906 -16.73242188 13.93945312 C-16.67483856 9.70199875 -16.32009392 6.85102244 -13.609375 3.5 C-9.1965514 -0.72785495 -5.92797045 -1.81468483 0 0 Z M-6 7 C-6.66 7.66 -7.32 8.32 -8 9 C-7.98252073 11.75589777 -7.86136729 14.38786676 -7.625 17.125 C-7.56828125 17.87910156 -7.5115625 18.63320313 -7.453125 19.41015625 C-7.3115535 21.27418096 -7.15700041 23.13721137 -7 25 C-5.35 25.33 -3.7 25.66 -2 26 C-0.4828801 22.96576019 -0.81560743 19.82495206 -0.8125 16.5 C-0.80025391 15.81035156 -0.78800781 15.12070312 -0.77539062 14.41015625 C-0.77011305 12.60522506 -0.87815542 10.80082158 -1 9 C-1.66 8.34 -2.32 7.68 -3 7 C-3.99 7 -4.98 7 -6 7 Z " fill="#d9d9d9" transform="translate(56,41)"/>
<path d="M0 0 C2.87283801 1.57860545 5.02949677 3.37298898 7 6 C7.93792121 9.55855118 7.84742058 12.90463403 7.6875 16.5625 C7.69040039 17.96145508 7.69040039 17.96145508 7.69335938 19.38867188 C7.60376578 23.72314827 7.41753281 26.32559001 5.1015625 30.06640625 C1.62072274 33.26903763 -0.70276193 34.02358615 -5.4375 33.9375 C-10.02582664 32.73004562 -11.76284406 31.46838136 -15 28 C-16.26095787 24.43964838 -16.36326268 22.84761291 -14.875 19.375 C-12.73280366 16.6615513 -10.95848886 14.81543635 -8 13 C-4.1875 12.75 -4.1875 12.75 -1 13 C-1.33 11.35 -1.66 9.7 -2 8 C-3.65 7.67 -5.3 7.34 -7 7 C-7.2475 7.804375 -7.495 8.60875 -7.75 9.4375 C-9 12 -9 12 -10.9375 13 C-13 13 -13 13 -14.75 11.5625 C-15.1625 11.046875 -15.575 10.53125 -16 10 C-14.75892597 5.03570389 -13.23893588 2.86128172 -9 0 C-5.72766691 -1.63616654 -3.49970684 -0.86058365 0 0 Z M-6 20 C-7.10836423 21.88316159 -7.10836423 21.88316159 -8 24 C-7.67 24.66 -7.34 25.32 -7 26 C-5.02 26 -3.04 26 -1 26 C-1 24.02 -1 22.04 -1 20 C-2.65 20 -4.3 20 -6 20 Z " fill="#d9d9d9" transform="translate(258,41)"/>
<path d="M0 0 C1.10408203 -0.00773437 1.10408203 -0.00773437 2.23046875 -0.015625 C2.98972656 -0.00015625 3.74898437 0.0153125 4.53125 0.03125 C5.67013672 0.00804687 5.67013672 0.00804687 6.83203125 -0.015625 C7.56808594 -0.01046875 8.30414063 -0.0053125 9.0625 0 C10.06120117 0.00676758 10.06120117 0.00676758 11.08007812 0.01367188 C14.00341987 0.7891329 15.20375716 2.15848714 17.03125 4.53125 C17.53295898 7.15673828 17.53295898 7.15673828 17.52734375 10.1015625 C17.52798828 11.16246094 17.52863281 12.22335938 17.52929688 13.31640625 C17.50931641 14.41855469 17.48933594 15.52070312 17.46875 16.65625 C17.47583984 17.76613281 17.48292969 18.87601563 17.49023438 20.01953125 C17.4418886 26.12597473 17.4418886 26.12597473 17.03125 28.53125 C16.04125 29.19125 15.05125 29.85125 14.03125 30.53125 C11.46988779 27.96988779 11.73458143 26.86563669 11.6171875 23.3046875 C11.57851562 22.2734375 11.53984375 21.2421875 11.5 20.1796875 C11.4690625 19.09945312 11.438125 18.01921875 11.40625 16.90625 C11.36757812 15.81828125 11.32890625 14.7303125 11.2890625 13.609375 C11.19458753 10.91683835 11.10902569 8.22431243 11.03125 5.53125 C10.04125 5.53125 9.05125 5.53125 8.03125 5.53125 C7.70125 11.14125 7.37125 16.75125 7.03125 22.53125 C5.38125 22.53125 3.73125 22.53125 2.03125 22.53125 C1.70125 16.92125 1.37125 11.31125 1.03125 5.53125 C-0.28875 5.86125 -1.60875 6.19125 -2.96875 6.53125 C-2.95303955 7.76278809 -2.9373291 8.99432617 -2.92114258 10.26318359 C-2.86694411 14.82154835 -2.83243678 19.3798845 -2.80395508 23.93847656 C-2.78884538 25.91346013 -2.76835672 27.88841004 -2.74243164 29.86328125 C-2.70614381 32.69800106 -2.68904584 35.53227826 -2.67578125 38.3671875 C-2.66029739 39.25368988 -2.64481354 40.14019226 -2.62886047 41.05355835 C-2.62863388 41.87425812 -2.62840729 42.69495789 -2.62817383 43.54052734 C-2.62151199 44.26444672 -2.61485016 44.98836609 -2.60798645 45.73422241 C-2.96875 47.53125 -2.96875 47.53125 -5.96875 49.53125 C-6.62875 49.20125 -7.28875 48.87125 -7.96875 48.53125 C-8.06763089 42.33826358 -8.14022486 36.14573668 -8.18847656 29.95214844 C-8.20859126 27.84529618 -8.23588667 25.73849975 -8.27050781 23.63183594 C-8.31903168 20.60337553 -8.34172016 17.57565322 -8.359375 14.546875 C-8.38002014 13.60507385 -8.40066528 12.66327271 -8.42193604 11.69293213 C-8.42416504 5.19597069 -8.42416504 5.19597069 -6.19238281 1.93847656 C-3.87167959 0.46981897 -2.71283508 0.0183832 0 0 Z " fill="#d9d9d9" transform="translate(123.96875,50.46875)"/>
<path d="M0 0 C2.4375 0.1875 2.4375 0.1875 3.4375 1.1875 C3.47813832 2.85367115 3.480221 4.52138095 3.4375 6.1875 C4.860625 6.125625 4.860625 6.125625 6.3125 6.0625 C9.4375 6.1875 9.4375 6.1875 11.4375 8.1875 C11.0625 10.8125 11.0625 10.8125 10.4375 13.1875 C8.4575 13.5175 6.4775 13.8475 4.4375 14.1875 C4.4375 20.4575 4.4375 26.7275 4.4375 33.1875 C6.7475 33.1875 9.0575 33.1875 11.4375 33.1875 C13.375 34.6875 13.375 34.6875 14.4375 36.1875 C13.4475 38.6625 13.4475 38.6625 12.4375 41.1875 C8.41107995 41.68053103 4.8954358 42.05742855 1.31640625 39.921875 C-1.10845035 37.84486686 -3.12578858 36.06092284 -4.5625 33.1875 C-4.77391314 28.76168131 -4.74829708 24.33215755 -4.74780273 19.90185547 C-4.74999147 17.6960935 -4.7681586 15.49082984 -4.78710938 13.28515625 C-4.79004293 11.88802255 -4.79202798 10.49088647 -4.79296875 9.09375 C-4.79707764 7.81822266 -4.80118652 6.54269531 -4.80541992 5.22851562 C-4.49939837 1.39755643 -3.91739558 0.2866387 0 0 Z " fill="#d9d9d9" transform="translate(70.5625,33.8125)"/>
<path d="M0 0 C3 0.125 3 0.125 4 1.125 C4.04063832 2.79117115 4.042721 4.45888095 4 6.125 C5.423125 6.063125 5.423125 6.063125 6.875 6 C10 6.125 10 6.125 12 8.125 C11.63318342 11.05953261 11.13562754 11.98937246 9 14.125 C7.35 14.125 5.7 14.125 4 14.125 C4.33 20.395 4.66 26.665 5 33.125 C7.31 33.125 9.62 33.125 12 33.125 C12.66 33.785 13.32 34.445 14 35.125 C13.44444444 39.68055556 13.44444444 39.68055556 12 41.125 C5.90913193 41.64117526 2.86756232 41.18130193 -2 37.125 C-4.41942217 33.49586675 -4.27328714 30.83887895 -4.23046875 26.6484375 C-4.22978142 25.55965805 -4.22978142 25.55965805 -4.2290802 24.44888306 C-4.22606284 22.91740276 -4.21819194 21.3859254 -4.20581055 19.85449219 C-4.18751434 17.50184349 -4.18530119 15.14958753 -4.18554688 12.796875 C-4.18063303 11.30989241 -4.1748053 9.8229125 -4.16796875 8.3359375 C-4.16685593 7.62867523 -4.1657431 6.92141296 -4.16459656 6.19271851 C-4.10557719 0.17106572 -4.10557719 0.17106572 0 0 Z " fill="#d9d9d9" transform="translate(227,33.875)"/>
<path d="M0 0 C2.625 0.375 2.625 0.375 5 1 C5.33 2.65 5.66 4.3 6 6 C8.97 6.495 8.97 6.495 12 7 C12.625 8.875 12.625 8.875 13 11 C11 13 11 13 7 14 C6.67 20.27 6.34 26.54 6 33 C7.98 33 9.96 33 12 33 C14.375 35 14.375 35 16 37 C14.9375 39 14.9375 39 13 41 C8.47909963 41.78246353 5.81274281 41.18213853 2.125 38.625 C0.14307483 37.10522778 -0.87567279 36.24865442 -2 34 C-2.21182418 29.43171796 -2.18579675 24.85975522 -2.18530273 20.28710938 C-2.18749143 18.00892523 -2.20565804 15.73122357 -2.22460938 13.453125 C-2.22754293 12.01041833 -2.22952798 10.56770935 -2.23046875 9.125 C-2.23457764 7.80757812 -2.23868652 6.49015625 -2.24291992 5.1328125 C-2 2 -2 2 0 0 Z " fill="#d9d9d9" transform="translate(167,34)"/>
<path d="M0 0 C2.6875 0.875 2.6875 0.875 5 2 C5.04938149 6.37823917 5.0857104 10.75633146 5.10986328 15.13476562 C5.11993043 16.6247032 5.13358518 18.11462097 5.15087891 19.60449219 C5.17509653 21.74419028 5.18647564 23.88362753 5.1953125 26.0234375 C5.20578613 27.31169434 5.21625977 28.59995117 5.22705078 29.92724609 C5 33 5 33 3 35 C-1.55555556 34.44444444 -1.55555556 34.44444444 -3 33 C-3.24215865 28.60041753 -3.22850329 24.19530526 -3.24023438 19.78979492 C-3.24994529 17.57497685 -3.2809579 15.36108459 -3.3125 13.14648438 C-3.3190293 11.7447972 -3.32428006 10.34310336 -3.328125 8.94140625 C-3.3374707 7.65951416 -3.34681641 6.37762207 -3.35644531 5.05688477 C-3.23881836 4.04811279 -3.12119141 3.03934082 -3 2 C-2.01 1.34 -1.02 0.68 0 0 Z " fill="#d9d9d9" transform="translate(188,40)"/>
<path d="M0 0 C2.375 1.0625 2.375 1.0625 4 3 C4.5 6.5 4.5 6.5 4 10 C1.41126058 12.87637713 -1.23914141 13.47765853 -5 14 C-5 14.99 -5 15.98 -5 17 C-3.68 17 -2.36 17 -1 17 C-0.34 16.01 0.32 15.02 1 14 C1.99 14.33 2.98 14.66 4 15 C3.25 19.75 3.25 19.75 1 22 C-5.92204042 22.78152069 -5.92204042 22.78152069 -9.5 20.1875 C-11.7195256 15.4710081 -11.65410813 11.12512955 -11 6 C-8.49731869 0.31208793 -6.07209985 -0.48576799 0 0 Z M-5 4 C-5.33 5.65 -5.66 7.3 -6 9 C-4.35 9 -2.7 9 -1 9 C-0.67 7.68 -0.34 6.36 0 5 C-1.65 4.67 -3.3 4.34 -5 4 Z " fill="#d9d9d9" transform="translate(155,51)"/>
<path d="M0 0 C3.48237464 1.16079155 4.01581316 2.06868381 6.0625 5 C8.07953853 8.01628184 8.07953853 8.01628184 11 10 C11 11.32 11 12.64 11 14 C7.41297339 12.53185858 5.59626852 10.61565711 3.25 7.5625 C2.63640625 6.78003906 2.0228125 5.99757813 1.390625 5.19140625 C0 3 0 3 0 0 Z " fill="#d9d9d9" transform="translate(319,69)"/>
<path d="M0 0 C2.625 0.375 2.625 0.375 5 1 C5.625 2.875 5.625 2.875 6 5 C5.34 5.66 4.68 6.32 4 7 C1.375 6.625 1.375 6.625 -1 6 C-1.625 4.125 -1.625 4.125 -2 2 C-1.34 1.34 -0.68 0.68 0 0 Z " fill="#d9d9d9" transform="translate(187,32)"/>
<path d="M0 0 C1.43861294 0.08746284 2.87597508 0.19565348 4.3125 0.3125 C5.11300781 0.37050781 5.91351563 0.42851563 6.73828125 0.48828125 C9.36272334 1.08206694 10.30820672 1.95780294 12 4 C8.03956254 5.32014582 5.90278401 4.27727477 2 3 C1.34 2.67 0.68 2.34 0 2 C0 1.34 0 0.68 0 0 Z " fill="#d9d9d9" transform="translate(322,58)"/>
<path d="M0 0 C-0.8125 1.9375 -0.8125 1.9375 -2 4 C-2.99 4.33 -3.98 4.66 -5 5 C-5.33 5.66 -5.66 6.32 -6 7 C-6.33 6.01 -6.66 5.02 -7 4 C-3.375 0 -3.375 0 0 0 Z " fill="#d9d9d9" transform="translate(337,19)"/>
<path d="M0 0 C0.33 0.99 0.66 1.98 1 3 C-1.31 4.98 -3.62 6.96 -6 9 C-6.33 8.01 -6.66 7.02 -7 6 C-4.69 4.02 -2.38 2.04 0 0 Z " fill="#d9d9d9" transform="translate(333,35)"/>
<path d="M0 0 C1.32 0.33 2.64 0.66 4 1 C4 1.99 4 2.98 4 4 C2.68 3.34 1.36 2.68 0 2 C0 1.34 0 0.68 0 0 Z " fill="#d9d9d9" transform="translate(320,81)"/>
<path d="M0 0 C1.32 0 2.64 0 4 0 C4 0.99 4 1.98 4 3 C2.68 3 1.36 3 0 3 C0 2.01 0 1.02 0 0 Z " fill="#d9d9d9" transform="translate(326,69)"/>
<path d="M0 0 C2.475 0.99 2.475 0.99 5 2 C5 2.33 5 2.66 5 3 C3.35 3 1.7 3 0 3 C0 2.01 0 1.02 0 0 Z " fill="#d9d9d9" transform="translate(265,39)"/>
<path d="M0 0 C0.66 0 1.32 0 2 0 C2 0.99 2 1.98 2 3 C1.01 2.67 0.02 2.34 -1 2 C-0.67 1.34 -0.34 0.68 0 0 Z " fill="#d9d9d9" transform="translate(322,21)"/>
<path d="M0 0 C0.66 0.33 1.32 0.66 2 1 C2 1.66 2 2.32 2 3 C1.01 2.67 0.02 2.34 -1 2 C-0.67 1.34 -0.34 0.68 0 0 Z " fill="#d9d9d9" transform="translate(349,66)"/>
<path d="M0 0 C0.99 0 1.98 0 3 0 C3 0.66 3 1.32 3 2 C2.01 2 1.02 2 0 2 C0 1.34 0 0.68 0 0 Z " fill="#d9d9d9" transform="translate(302,9)"/>
<path d="M0 0 C0.66 0.66 1.32 1.32 2 2 C1.01 2 0.02 2 -1 2 C-0.67 1.34 -0.34 0.68 0 0 Z " fill="#d9d9d9" transform="translate(337,88)"/>
<path d="M0 0 C0.66 0.66 1.32 1.32 2 2 C1.01 2 0.02 2 -1 2 C-0.67 1.34 -0.34 0.68 0 0 Z " fill="#d9d9d9" transform="translate(349,73)"/>
<path d="M0 0 C0.66 0 1.32 0 2 0 C2 0.66 2 1.32 2 2 C1.34 2 0.68 2 0 2 C0 1.34 0 0.68 0 0 Z " fill="#d9d9d9" transform="translate(337,71)"/>
<path d="M0 0 C0.66 0 1.32 0 2 0 C2 0.66 2 1.32 2 2 C1.34 2 0.68 2 0 2 C0 1.34 0 0.68 0 0 Z " fill="#d9d9d9" transform="translate(344,65)"/>
<path d="M0 0 C0.66 0 1.32 0 2 0 C2 0.66 2 1.32 2 2 C1.34 2 0.68 2 0 2 C0 1.34 0 0.68 0 0 Z " fill="#d9d9d9" transform="translate(336,55)"/>
<path d="M0 0 C0.66 0 1.32 0 2 0 C2 0.66 2 1.32 2 2 C1.34 2 0.68 2 0 2 C0 1.34 0 0.68 0 0 Z " fill="#d9d9d9" transform="translate(334,31)"/>
<path d="M0 0 C0.66 0 1.32 0 2 0 C2 0.66 2 1.32 2 2 C1.34 2 0.68 2 0 2 C0 1.34 0 0.68 0 0 Z " fill="#d9d9d9" transform="translate(323,17)"/>
<path d="M0 0 C0.66 0 1.32 0 2 0 C1.67 0.66 1.34 1.32 1 2 C0.67 1.34 0.34 0.68 0 0 Z " fill="#d9d9d9" transform="translate(330,87)"/>
<path d="M0 0 C0.99 0.495 0.99 0.495 2 1 C1.01 1.495 1.01 1.495 0 2 C0 1.34 0 0.68 0 0 Z " fill="#d9d9d9" transform="translate(305,5)"/>
</svg>
