<?xml version="1.0" encoding="utf-8"?>
<!-- Generator: Adobe Illustrator 23.1.0, SVG Export Plug-In . SVG Version: 6.00 Build 0)  -->
<svg version="1.1" id="Layer_1" xmlns="http://www.w3.org/2000/svg" xmlns:xlink="http://www.w3.org/1999/xlink" x="0px" y="0px"
	 viewBox="0 0 133 60" style="enable-background:new 0 0 133 60;" xml:space="preserve">
<style type="text/css">
	<!--.st0{fill:url(#SVGID_1_);}-->
	.st0{fill:#d9d9d9;}
	.st1{fill:#d9d9d9;}
</style>
<g>
	<g>
		<g>
			
				<linearGradient id="SVGID_1_" gradientUnits="userSpaceOnUse" x1="8.3549" y1="26.7491" x2="120.5524" y2="26.7491" gradientTransform="matrix(1 0 0 -1 0 61)">
				<stop  offset="4.847760e-03" style="stop-color:#E71D77"/>
				<stop  offset="9.324696e-02" style="stop-color:#E72565"/>
				<stop  offset="0.2722" style="stop-color:#E8443A"/>
				<stop  offset="0.353" style="stop-color:#EA5728"/>
				<stop  offset="0.5472" style="stop-color:#EA5728"/>
				<stop  offset="0.5801" style="stop-color:#EA5728"/>
				<stop  offset="0.5988" style="stop-color:#C8733A"/>
				<stop  offset="0.624" style="stop-color:#829564"/>
				<stop  offset="0.6468" style="stop-color:#4AB286"/>
				<stop  offset="0.6663" style="stop-color:#46B597"/>
				<stop  offset="0.6818" style="stop-color:#4EB8A1"/>
				<stop  offset="0.6912" style="stop-color:#51B9A4"/>
				<stop  offset="1" style="stop-color:#55C1D9"/>
			</linearGradient>
			<path class="st0" d="M18.5,15.2c-4.2,0-6.8,0.9-9.2,3.9l2.6,2.3c1.6-2.1,3.2-2.9,6.5-2.9c4.8,0,6.6,2,6.6,5.8v2.4h-7.8
				c-5.9,0-9,2.9-9,7.5c0,2.1,0.7,4,2,5.3c1.7,1.7,3.8,2.3,7.3,2.3s5.4-0.7,7.5-2.8v2.4H29V23.9C29,18.2,25.6,15.2,18.5,15.2z
				 M25.2,32.3c0,2.1-0.4,3.6-1.4,4.5c-1.7,1.6-3.6,1.8-5.9,1.8c-4.1,0-6-1.5-6-4.5s2-4.6,5.9-4.6h7.3V32.3z M112.8,26.9l-4.2-0.4
				c-3.3-0.3-4.6-1.6-4.6-3.8c0-2.6,2.1-4.3,5.9-4.3c2.7,0,5.1,0.7,6.9,2.1l2.4-2.4c-2.3-2-5.7-2.8-9.4-2.8c-5.6,0-9.6,2.8-9.6,7.6
				c0,4.3,2.7,6.5,7.8,7l4.3,0.4c3,0.3,4.3,1.6,4.3,3.8c0,3-2.6,4.6-6.9,4.6c-3.2,0-6.1-0.9-8.1-3l-2.5,2.5
				c2.8,2.7,6.3,3.8,10.7,3.8c6.3,0,10.6-2.9,10.6-7.9C120.5,29.1,117.4,27.3,112.8,26.9z M48.4,18.5c-2.1-2.7-4.4-3.4-7.3-3.4
				c-2.6,0-5,0.9-6.4,2.2c-2.6,2.6-3.1,6.6-3.1,10.8s0.6,8.3,3.1,10.8c1.4,1.4,3.6,2.3,6.3,2.3c2.8,0,5.2-0.7,7.3-3.4v4.1
				c0,4.5-2.1,8-7.1,8c-3,0-4.3-0.9-6.3-2.6l-2.4,2.4c2.7,2.4,4.9,3.5,8.8,3.5c6.8,0,10.8-4.7,10.8-11.1V15.5h-3.7V18.5z M41.9,38.1
				c-5.7,0-6.5-4.9-6.5-9.8s0.9-9.8,6.5-9.8s6.4,4.9,6.4,9.8C48.3,33.2,47.5,38.1,41.9,38.1z M94.3,16.8c-2.1-1.3-4.6-1.6-6.9-1.6
				c-2.9,0-5.9,0.5-8.1,2.6C79,17.9,78,19,78.1,19.1c0.3,0.2,0.5,0.5,0.8,0.7c0.6,0.6,1.2,1.1,1.8,1.7c1.2-1.7,2.7-2.6,4.7-2.8
				c2-0.3,4.4-0.2,6.2,0.8c1.5,0.8,2.1,2.2,2.3,3.8c0,0.4,0.1,3.5,0,3.5h-7.2c-1.7,0-3.2,0.1-4.9,0.7c-2.2,0.8-4,2.6-5.6,4.5
				c-1.3,1.6-2.4,3.2-4,4.6c-1,0.9-2.1,1.6-3.4,1.9c-1.2,0.3-2.4,0.3-3.7,0.2c-1.8-0.2-3.4-1-4.5-2.3c-1.3-1.5-1.8-3.4-1.9-5.4
				c0-0.4,0-0.9,0-1.3h17.6v-1.7c0-3.8-1-7.9-4.1-10.5c-2.8-2.3-7.1-2.8-10.6-1.6c-3.5,1.4-5.6,4.7-6.4,8.3c-0.5,2.3-0.6,4.7-0.3,7
				c0.2,2,0.7,4,1.7,5.7c1.8,3,4.8,4.7,8.2,5c2.3,0.2,4.9,0,7-1.1c2.1-1,4.4-3.4,5.7-5.2c0.2,1.8,1,3.9,2.4,4.9
				c1.3,0.9,2.8,1.3,4.4,1.4c1.8,0.2,3.7,0.2,5.5-0.3c1.6-0.4,2.8-1.3,3.9-2.4v2.4h0.3c0.3,0,3.5,0,3.5,0V27.1c0-2,0.2-4-0.3-6
				C97,19.3,95.9,17.7,94.3,16.8z M59.6,22.3c1.4-3.2,5.2-4.7,8.4-3.5c1.6,0.6,2.8,1.7,3.6,3.1c0.8,1.5,0.9,3.1,1,4.7H58.8
				C58.9,25.2,59,23.7,59.6,22.3z M94,32.3c0,1.2-0.1,2.4-0.6,3.5c-0.5,1-1.4,1.7-2.3,2.1c-1.1,0.5-2.3,0.6-3.5,0.7
				c-1.2,0-2.3,0-3.4-0.3c-1.7-0.4-2.9-1.4-3.2-3.1c-0.3-1.7,0.1-3.5,1.5-4.6c1.3-1,2.9-1.1,4.5-1.1h7C94,29.6,94,32,94,32.3z"/>
		</g>
	</g>
	<g>
		<path class="st1" d="M122.7,39.1h-0.4v0.8h0.4c0.3,0,0.4-0.2,0.4-0.4C123.1,39.3,122.9,39.1,122.7,39.1 M123.1,41.2l-0.5-0.9h-0.4
			v0.9h-0.3v-2.3h0.8c0.4,0,0.7,0.3,0.7,0.7c0,0.3-0.2,0.5-0.5,0.6l0.6,1L123.1,41.2L123.1,41.2z M122.6,38.3c-1,0-1.8,0.8-1.8,1.8
			s0.8,1.8,1.8,1.8c1,0,1.8-0.8,1.8-1.8C124.4,39,123.6,38.3,122.6,38.3 M122.6,42.1c-1.2,0-2.1-0.9-2.1-2.1c0-1.2,0.9-2.1,2.1-2.1
			c1.2,0,2.1,0.9,2.1,2.1C124.6,41.2,123.8,42.1,122.6,42.1"/>
	</g>
	<g>
		<g>
			<g>
				<path class="st1" d="M9,9.3l1.3,0.2c0.1,0.4,0.2,0.7,0.5,0.9c0.3,0.2,0.8,0.4,1.4,0.4c0.6,0,1.1-0.1,1.4-0.4
					c0.3-0.3,0.6-0.6,0.7-1.1c0.1-0.3,0.1-0.9,0.1-1.7c-0.6,0.7-1.3,1-2.1,1c-1.1,0-1.9-0.3-2.4-1.1C9.1,6.8,8.8,5.8,8.8,4.7
					c0-0.8,0.1-1.5,0.4-2.1c0.3-0.6,0.7-1.1,1.2-1.5c0.5-0.3,1.1-0.5,1.8-0.5c0.9,0,1.7,0.4,2.2,1.1v-1h1.2v6.7
					c0,1.2-0.1,2.1-0.4,2.5S14.5,11,14,11.3c-0.5,0.3-1.2,0.5-2,0.5c-1,0-1.7-0.2-2.2-0.6C9.3,10.8,9,10.2,9,9.3z M10.1,4.6
					c0,1,0.2,1.8,0.6,2.2c0.5,0.5,1,0.7,1.6,0.7c0.6,0,1.1-0.2,1.6-0.7c0.4-0.5,0.6-1.2,0.6-2.1s-0.2-1.7-0.6-2.1
					c-0.4-0.5-1-0.7-1.6-0.7c-0.6,0-1.1,0.2-1.5,0.7C10.4,3,10.1,3.8,10.1,4.6z"/>
			</g>
			<g>
				<path class="st1" d="M19.1,8.6V0.8h1.2V2c0.3-0.6,0.6-0.9,0.9-1.1c0.3-0.1,0.6-0.2,0.9-0.2c0.5,0,0.9,0.1,1.4,0.4l-0.5,1.3
					c-0.3-0.2-0.7-0.3-1-0.3s-0.6,0.1-0.8,0.3c-0.2,0.2-0.4,0.4-0.5,0.7c-0.2,0.5-0.2,1-0.2,1.6v4.1L19.1,8.6L19.1,8.6z"/>
			</g>
			<g>
				<path class="st1" d="M30.7,8.6V7.6c-0.6,0.9-1.5,1.4-2.4,1.4c-0.5,0-0.9-0.1-1.3-0.3c-0.4-0.2-0.7-0.4-0.9-0.7
					c-0.2-0.3-0.3-0.6-0.4-1c-0.1-0.3-0.1-0.7-0.1-1.3V0.9h1.3v4.3c0,0.7,0,1.2,0.1,1.4c0.1,0.4,0.3,0.6,0.5,0.8
					c0.3,0.2,0.6,0.3,1,0.3c0.4,0,0.8-0.1,1.1-0.3c0.4-0.2,0.6-0.5,0.8-0.8c0.1-0.4,0.2-0.9,0.2-1.6V0.9h1.4v7.8L30.7,8.6L30.7,8.6z
					"/>
			</g>
			<g>
				<path class="st1" d="M35.5,11.7V0.9h1.2v1c0.3-0.4,0.6-0.7,1-0.9s0.8-0.3,1.3-0.3c0.7,0,1.3,0.2,1.8,0.5
					c0.6,0.4,0.9,0.9,1.2,1.5c0.3,0.6,0.4,1.3,0.4,2.1s-0.1,1.5-0.4,2.1c-0.3,0.7-0.7,1.2-1.3,1.5c-0.6,0.3-1.1,0.5-1.8,0.5
					c-0.5,0-0.9-0.1-1.2-0.3c-0.4-0.2-0.7-0.4-0.9-0.7v3.8C36.8,11.7,35.5,11.7,35.5,11.7z M36.7,4.8c0,1,0.2,1.8,0.6,2.2
					s0.9,0.7,1.5,0.7c0.6,0,1.1-0.3,1.5-0.8c0.4-0.5,0.6-1.3,0.6-2.3c0-1-0.2-1.8-0.6-2.2s-0.9-0.8-1.5-0.8c-0.6,0-1.1,0.3-1.5,0.8
					C36.9,3.1,36.7,3.9,36.7,4.8z"/>
			</g>
			<g>
				<path class="st1" d="M44.9,4.8c0-1.5,0.4-2.5,1.2-3.2c0.7-0.6,1.5-0.9,2.4-0.9c1.1,0,2,0.4,2.6,1.1c0.7,0.7,1,1.7,1,2.9
					c0,1-0.2,1.8-0.5,2.3s-0.8,1-1.3,1.4c-0.6,0.3-1.2,0.5-1.9,0.5c-1.1,0-2-0.4-2.6-1.1C45.2,7.1,44.9,6.1,44.9,4.8z M46.3,4.8
					c0,1,0.2,1.8,0.7,2.2c0.4,0.5,1,0.8,1.7,0.8c0.7,0,1.2-0.3,1.7-0.8C50.7,6.6,51,5.8,51,4.8s-0.2-1.7-0.7-2.1
					c-0.4-0.5-1-0.8-1.7-0.8c-0.7,0-1.2,0.3-1.7,0.8C46.5,3.1,46.3,3.8,46.3,4.8z"/>
			</g>
		</g>
	</g>
	<g>
		<path class="st1" d="M59.9,59.2V48.4H61v1c0.3-0.4,0.6-0.7,1-0.9s0.8-0.3,1.3-0.3c0.7,0,1.3,0.2,1.8,0.5s0.9,0.8,1.2,1.5
			c0.3,0.6,0.4,1.3,0.4,2.1c0,0.8-0.1,1.5-0.4,2.1c-0.3,0.7-0.7,1.2-1.3,1.5c-0.6,0.3-1.1,0.5-1.8,0.5c-0.5,0-0.9-0.1-1.2-0.3
			c-0.4-0.2-0.7-0.4-0.9-0.7v3.8H59.9z M61,52.3c0,1,0.2,1.8,0.6,2.2c0.4,0.5,0.9,0.7,1.5,0.7s1.1-0.3,1.5-0.8
			c0.4-0.5,0.6-1.3,0.6-2.3c0-1-0.2-1.8-0.6-2.2c-0.4-0.5-0.9-0.8-1.5-0.8s-1.1,0.3-1.5,0.8C61.2,50.6,61,51.4,61,52.3z"/>
		<path class="st1" d="M68.8,52.3c0-1.5,0.4-2.5,1.2-3.2c0.7-0.6,1.5-0.9,2.4-0.9c1.1,0,2,0.4,2.6,1.1c0.7,0.7,1,1.7,1,2.9
			c0,1-0.2,1.8-0.5,2.3c-0.3,0.6-0.8,1-1.3,1.4c-0.6,0.3-1.2,0.5-1.9,0.5c-1.1,0-2-0.4-2.6-1.1C69.2,54.7,68.8,53.6,68.8,52.3z
			 M70.2,52.3c0,1,0.2,1.8,0.7,2.2c0.4,0.5,1,0.8,1.7,0.8c0.7,0,1.2-0.3,1.7-0.8c0.4-0.5,0.7-1.3,0.7-2.2c0-1-0.2-1.7-0.7-2.1
			c-0.4-0.5-1-0.8-1.7-0.8c-0.7,0-1.2,0.3-1.7,0.8C70.4,50.6,70.2,51.4,70.2,52.3z"/>
		<path class="st1" d="M78.9,56.2v-7.8h1.2v1.2c0.3-0.6,0.6-0.9,0.9-1.1c0.3-0.2,0.6-0.3,0.9-0.3c0.5,0,0.9,0.1,1.4,0.4l-0.5,1.3
			c-0.3-0.2-0.7-0.3-1-0.3c-0.3,0-0.6,0.1-0.8,0.3c-0.2,0.2-0.4,0.4-0.5,0.7c-0.1,0.5-0.2,1-0.2,1.6v4.1
			C80.3,56.2,78.9,56.2,78.9,56.2z"/>
		<path class="st1" d="M88,55.1l0.2,1.2c-0.4,0.1-0.7,0.1-1,0.1c-0.5,0-0.9-0.1-1.1-0.2c-0.3-0.2-0.5-0.4-0.6-0.6
			c-0.1-0.3-0.2-0.8-0.2-1.6v-4.5h-1v-1.1h1v-2l1.3-0.8v2.7H88v1.1h-1.4v4.6c0,0.4,0,0.6,0.1,0.7c0,0.1,0.1,0.2,0.2,0.3
			c0.1,0.1,0.3,0.1,0.5,0.1C87.6,55.1,87.8,55.1,88,55.1z"/>
		<path class="st1" d="M95.6,56.2v-1.2c-0.6,0.9-1.5,1.4-2.4,1.4c-0.5,0-0.9-0.1-1.3-0.3c-0.4-0.2-0.7-0.4-0.9-0.7
			c-0.2-0.3-0.3-0.6-0.4-1c-0.1-0.3-0.1-0.7-0.1-1.3v-4.8h1.4v4.3c0,0.7,0,1.2,0.1,1.4c0.1,0.4,0.3,0.6,0.5,0.8
			c0.3,0.2,0.6,0.3,1,0.3s0.8-0.1,1.1-0.3c0.4-0.2,0.6-0.5,0.8-0.8c0.1-0.4,0.2-0.9,0.2-1.6v-4.2h1.4v7.8L95.6,56.2L95.6,56.2z"/>
		<path class="st1" d="M99.8,56.8l1.3,0.2c0.1,0.4,0.2,0.7,0.5,0.9c0.3,0.3,0.8,0.4,1.4,0.4s1.1-0.1,1.4-0.4
			c0.3-0.3,0.6-0.6,0.7-1.1c0.1-0.3,0.1-0.9,0.1-1.7c-0.6,0.7-1.3,1-2.1,1c-1.1,0-1.9-0.4-2.4-1.2c-0.6-0.8-0.9-1.7-0.9-2.7
			c0-0.8,0.1-1.5,0.4-2.1c0.3-0.6,0.7-1.1,1.2-1.5c0.5-0.4,1.1-0.5,1.8-0.5c0.9,0,1.7,0.4,2.2,1.1v-1h1.2v6.7c0,1.2-0.1,2.1-0.4,2.5
			c-0.3,0.5-0.7,0.9-1.2,1.2c-0.5,0.3-1.2,0.5-2,0.5c-1,0-1.7-0.2-2.2-0.6C100,58.3,99.8,57.7,99.8,56.8z M100.9,52.1
			c0,1,0.2,1.8,0.6,2.2c0.4,0.5,0.9,0.7,1.6,0.7c0.6,0,1.1-0.2,1.6-0.7c0.4-0.5,0.6-1.2,0.6-2.1c0-1-0.2-1.7-0.6-2.1s-1-0.7-1.6-0.7
			s-1.1,0.2-1.5,0.7C101.1,50.6,100.9,51.3,100.9,52.1z"/>
		<path class="st1" d="M114.7,55.3c-0.5,0.4-1,0.7-1.4,0.9c-0.5,0.2-1,0.3-1.5,0.3c-0.9,0-1.5-0.2-2-0.6c-0.5-0.4-0.7-1-0.7-1.6
			c0-0.4,0.1-0.7,0.3-1.1c0.2-0.3,0.4-0.6,0.7-0.8c0.3-0.2,0.6-0.3,1-0.4c0.3-0.1,0.7-0.1,1.2-0.2c1.1-0.1,1.9-0.3,2.3-0.5
			c0-0.2,0-0.3,0-0.4c0-0.6-0.1-0.9-0.4-1.2c-0.3-0.3-0.9-0.5-1.5-0.5c-0.6,0-1.1,0.1-1.4,0.3c-0.3,0.2-0.5,0.6-0.7,1.2l-1.3-0.2
			c0.1-0.6,0.3-1,0.6-1.4c0.3-0.3,0.7-0.6,1.2-0.8c0.5-0.2,1.1-0.3,1.8-0.3c0.7,0,1.2,0.1,1.7,0.2c0.4,0.2,0.7,0.4,0.9,0.6
			c0.2,0.2,0.3,0.5,0.4,0.9c0,0.2,0.1,0.6,0.1,1.2v1.8c0,1.3,0,2,0.1,2.3c0.1,0.3,0.2,0.7,0.3,1h-1.4
			C114.8,55.9,114.7,55.7,114.7,55.3z M114.6,52.3c-0.5,0.2-1.2,0.4-2.1,0.5c-0.6,0.1-0.9,0.2-1.2,0.3c-0.2,0.1-0.4,0.2-0.5,0.4
			c-0.1,0.2-0.2,0.4-0.2,0.6c0,0.4,0.1,0.7,0.4,0.9c0.3,0.2,0.7,0.4,1.2,0.4s1-0.1,1.4-0.3s0.7-0.5,0.9-0.9c0.1-0.3,0.2-0.8,0.2-1.4
			C114.6,52.8,114.6,52.3,114.6,52.3z"/>
		<path class="st1" d="M119.2,56.2V45.5h1.4v10.7H119.2z"/>
	</g>
</g>
</svg>
