<?xml version="1.0" standalone="no"?>
<!DOCTYPE svg PUBLIC "-//W3C//DTD SVG 20010904//EN"
 "http://www.w3.org/TR/2001/REC-SVG-20010904/DTD/svg10.dtd">
<svg version="1.0" xmlns="http://www.w3.org/2000/svg"
 width="886pt" height="327pt" viewBox="0 0 886 327"
 preserveAspectRatio="xMidYMid meet">

<g transform="translate(0,327) scale(0.100000,-0.100000)"
fill="#d9d9d9" stroke="none">
<path d="M1980 2771 c0 -11 5 -23 10 -26 6 -4 10 5 10 19 0 14 -4 26 -10 26
-5 0 -10 -9 -10 -19z"/>
<path d="M2008 2724 c-12 -11 -10 -61 4 -121 14 -58 38 -72 38 -23 0 17 -5 30
-10 30 -6 0 -8 11 -4 25 4 15 2 25 -4 25 -6 0 -12 16 -14 36 -2 20 -6 32 -10
28z"/>
<path d="M260 1327 c0 -225 1 -235 21 -253 19 -18 39 -19 253 -19 199 0 231 2
231 15 0 13 -31 16 -196 20 -145 4 -200 9 -212 19 -15 12 -17 41 -17 232 l0
219 -40 0 -40 0 0 -233z"/>
<path d="M5027 1544 c-4 -4 -7 -47 -7 -96 0 -48 -3 -88 -7 -88 -5 0 -37 9 -71
20 -113 36 -320 23 -413 -26 -15 -7 -41 -27 -58 -44 -26 -27 -31 -39 -31 -81
0 -82 42 -123 163 -160 80 -24 251 -26 343 -3 61 16 66 16 77 0 9 -12 24 -17
47 -14 l35 3 0 245 0 245 -35 3 c-20 2 -39 0 -43 -4z m-154 -203 c27 -6 62
-19 79 -28 35 -21 68 -79 68 -121 0 -24 -7 -32 -42 -49 -81 -39 -121 -47 -230
-46 -102 1 -109 3 -151 32 -79 54 -85 113 -19 179 34 34 43 38 97 40 32 1 61
5 64 8 7 6 60 0 134 -15z"/>
<path d="M3690 1501 c-26 -17 3 -32 56 -29 36 2 49 7 49 18 0 18 -81 26 -105
11z"/>
<path d="M810 1274 l0 -127 35 -33 c47 -44 121 -64 235 -64 117 0 184 19 233
67 l38 36 -3 121 -3 121 -37 3 c-43 4 -40 13 -42 -118 0 -53 -7 -96 -16 -115
-41 -82 -242 -97 -324 -25 -31 28 -31 30 -36 142 l-5 113 -37 3 -38 3 0 -127z"/>
<path d="M1476 1384 c-56 -20 -66 -32 -66 -75 0 -30 6 -42 30 -59 28 -20 132
-45 283 -68 66 -10 117 -33 117 -52 0 -36 -198 -53 -308 -26 -54 13 -75 14
-98 6 l-29 -12 23 -18 c32 -26 84 -32 262 -28 131 2 161 6 195 23 38 19 40 23
40 65 0 44 -1 46 -47 67 -26 13 -78 28 -115 33 -213 32 -267 48 -261 78 8 40
178 55 294 26 50 -13 71 -14 90 -6 35 17 30 28 -23 46 -62 21 -329 21 -387 0z"/>
<path d="M2134 1371 c-110 -40 -144 -76 -144 -149 0 -59 25 -91 102 -133 61
-32 67 -33 200 -37 147 -5 189 3 295 55 40 20 55 34 63 58 23 68 -3 139 -63
176 -106 65 -322 79 -453 30z m281 -30 c79 -14 121 -39 140 -82 13 -27 14 -41
7 -51 -75 -91 -88 -99 -200 -113 -57 -8 -175 15 -223 43 -28 16 -59 61 -59 86
0 30 24 67 57 87 34 21 174 50 208 43 11 -3 43 -9 70 -13z"/>
<path d="M2728 1392 c-14 -6 0 -31 84 -152 55 -80 103 -152 106 -160 9 -25 24
-30 93 -30 70 0 83 6 118 58 12 17 28 32 35 32 7 0 31 -20 53 -45 39 -44 42
-45 99 -45 33 0 66 6 75 13 26 21 230 310 226 321 -2 6 -22 12 -44 14 -45 3
-28 22 -178 -190 -38 -54 -72 -98 -76 -98 -7 0 -78 95 -143 192 -59 88 -72 98
-116 98 -52 0 -51 -13 6 -95 l46 -66 -42 -64 c-23 -36 -46 -65 -50 -65 -5 0
-34 37 -67 82 -132 185 -148 203 -179 205 -16 1 -37 -1 -46 -5z"/>
<path d="M3704 1387 c-2 -7 -3 -85 -2 -172 l3 -160 38 -3 37 -3 0 175 0 176
-35 0 c-20 0 -38 -6 -41 -13z"/>
<path d="M3846 1392 c-2 -4 -4 -82 -3 -172 l2 -165 40 0 40 0 5 118 c5 109 7
120 28 138 72 58 239 55 309 -5 27 -23 28 -29 33 -138 l5 -113 36 -3 36 -3 5
113 c4 83 2 120 -7 139 -16 30 -77 72 -120 84 -56 15 -228 17 -268 4 -30 -10
-43 -10 -58 -1 -21 14 -75 16 -83 4z"/>
<path d="M5175 1390 c-4 -6 -6 -82 -6 -168 1 -115 -2 -162 -11 -174 -12 -15
-80 -17 -748 -22 -404 -4 -872 -6 -1040 -5 -401 2 -409 2 -522 -9 -54 -6 -261
-13 -460 -16 -200 -3 -401 -7 -448 -7 l-85 -2 65 -7 c58 -7 902 -12 1285 -7
489 6 1437 -11 1804 -33 115 -7 146 -11 153 -24 12 -21 77 -21 92 -1 9 13 33
13 166 5 85 -6 184 -15 220 -20 36 -5 112 -14 170 -20 143 -14 312 -49 349
-71 37 -22 40 -51 7 -73 -84 -54 -578 -128 -1084 -162 -56 -4 -100 -9 -97 -12
3 -3 25 -5 48 -4 23 1 195 9 382 17 187 8 356 17 375 20 19 3 125 9 235 15
241 12 750 45 930 60 72 6 216 17 320 25 517 40 968 93 1160 137 103 24 125
33 125 54 0 20 -35 32 -144 49 -360 57 -1009 84 -2286 93 l-875 7 -3 23 c-4
27 12 28 82 7 68 -21 251 -20 324 1 126 36 172 79 172 158 0 26 -7 57 -15 70
-24 36 -83 70 -156 90 -82 22 -256 18 -342 -7 -70 -20 -67 -20 -67 -3 0 24
-62 37 -75 16z m405 -46 c94 -19 130 -40 152 -86 16 -33 16 -39 2 -67 -31 -62
-116 -96 -239 -95 -127 1 -245 49 -245 99 0 59 49 119 110 135 19 5 51 13 70
18 50 14 66 14 150 -4z m1457 -450 c-3 -3 -12 -4 -19 -1 -8 3 -5 6 6 6 11 1
17 -2 13 -5z"/>
<path d="M6052 1380 c-121 -36 -162 -77 -162 -161 0 -44 4 -55 33 -83 17 -18
59 -44 92 -57 53 -21 76 -24 205 -24 130 0 151 2 205 24 33 13 75 39 93 58 28
30 32 41 32 88 0 48 -4 58 -34 89 -32 31 -58 43 -157 75 -56 18 -234 12 -307
-9z m256 -35 c85 -20 126 -44 147 -89 16 -34 16 -37 -2 -68 -12 -22 -38 -43
-78 -62 -54 -26 -70 -30 -156 -30 -87 0 -102 3 -155 30 -75 37 -103 79 -84
125 17 41 73 76 139 89 30 6 57 12 59 15 10 9 63 5 130 -10z"/>
<path d="M6615 1389 c-4 -6 2 -20 12 -32 11 -12 55 -74 98 -137 114 -167 117
-170 188 -170 58 0 61 1 101 45 23 25 46 45 51 45 5 0 28 -20 51 -45 39 -43
43 -45 97 -45 48 0 61 4 86 28 42 39 223 301 216 312 -3 6 -22 10 -41 10 -43
0 -53 -10 -164 -169 -47 -66 -88 -121 -92 -121 -3 0 -30 33 -59 73 -161 220
-158 217 -192 217 -59 0 -60 -11 -6 -88 l51 -73 -42 -64 c-41 -63 -63 -79 -73
-52 -5 14 -97 144 -157 225 -36 47 -43 52 -79 52 -22 0 -43 -5 -46 -11z"/>
<path d="M7750 1381 c-118 -38 -170 -84 -170 -153 0 -77 53 -128 169 -162 113
-33 444 -11 458 31 8 24 -35 35 -85 23 -84 -21 -186 -30 -247 -24 -111 12
-206 61 -192 99 6 13 43 15 288 14 154 0 283 2 286 5 4 3 1 24 -6 46 -25 84
-164 140 -346 139 -65 -1 -119 -7 -155 -18z m288 -44 c51 -14 119 -67 108 -85
-5 -9 -70 -12 -231 -12 -161 0 -226 3 -231 12 -5 7 7 24 30 44 65 56 202 74
324 41z"/>
<path d="M8312 1392 c-9 -7 -12 -48 -10 -173 l3 -164 40 0 40 0 5 95 c5 101
18 135 63 165 38 25 118 45 180 45 50 0 58 2 55 18 -5 25 -141 29 -227 6 -59
-16 -64 -16 -73 0 -9 17 -54 21 -76 8z"/>
<path d="M1670 980 l-25 -8 25 -1 c14 0 32 4 40 9 13 9 13 10 0 9 -8 -1 -26
-5 -40 -9z"/>
<path d="M4737 414 c-4 -4 -7 -47 -7 -96 0 -67 3 -89 13 -86 8 3 13 30 15 76
2 40 6 72 11 72 4 0 25 -32 46 -70 60 -109 91 -106 151 12 13 27 29 48 34 48
5 0 10 -29 12 -65 4 -97 23 -80 26 25 l3 90 -28 0 c-24 0 -34 -11 -73 -78 -25
-42 -49 -77 -55 -76 -5 1 -28 34 -51 75 -31 57 -46 75 -65 77 -14 2 -28 0 -32
-4z"/>
<path d="M7143 413 c-7 -2 -13 -17 -13 -33 0 -32 17 -41 128 -66 55 -12 72
-20 72 -33 0 -26 -80 -44 -131 -31 -21 6 -39 15 -39 20 0 6 -7 10 -15 10 -22
0 -19 -27 4 -40 27 -14 154 -13 186 2 30 14 34 53 6 68 -11 5 -50 17 -88 26
-97 22 -115 41 -65 68 l27 15 -30 0 c-16 0 -36 -3 -42 -6z"/>
<path d="M7305 408 c11 -6 27 -21 36 -31 14 -18 16 -18 22 -4 8 22 -19 47 -51
47 -25 -1 -26 -1 -7 -12z"/>
<path d="M6754 386 c-16 -12 -17 -18 -7 -34 8 -14 8 -23 1 -30 -13 -13 -3 -42
15 -42 8 0 13 10 13 22 -1 17 6 24 29 28 l30 6 -32 7 c-35 7 -43 24 -18 33 8
4 15 10 15 15 0 14 -24 11 -46 -5z"/>
<path d="M6865 390 c-4 -6 3 -10 14 -10 25 0 27 6 6 13 -8 4 -17 2 -20 -3z"/>
<path d="M5582 313 l3 -78 30 -3 c27 -2 28 -1 12 12 -13 10 -17 26 -16 68 2
56 -4 78 -22 78 -6 0 -9 -31 -7 -77z"/>
<path d="M8137 353 c-4 -3 -7 -33 -7 -65 0 -78 24 -76 28 2 3 50 -6 78 -21 63z"/>
<path d="M5100 337 c-17 -8 -26 -22 -28 -43 -3 -26 2 -32 33 -47 46 -22 134
-22 180 0 27 13 35 23 35 44 0 37 -22 51 -83 55 l-52 4 44 -13 c78 -22 80 -62
4 -85 -50 -15 -127 5 -131 35 -3 23 10 36 53 51 l30 10 -30 1 c-16 0 -41 -5
-55 -12z"/>
<path d="M5342 303 c-2 -49 11 -84 25 -69 4 4 8 24 8 44 0 32 5 39 35 54 l35
18 -51 0 -50 0 -2 -47z"/>
<path d="M5487 333 c27 -14 32 -22 35 -57 4 -55 22 -52 26 4 4 51 -13 70 -62
69 l-31 0 32 -16z"/>
<path d="M5722 334 c-35 -24 -26 -64 18 -86 27 -14 55 -17 125 -15 l90 3 1 57
0 57 -55 -1 c-56 -1 -56 -1 -25 -14 44 -20 61 -42 43 -59 -31 -27 -86 -38
-129 -25 -76 23 -78 63 -4 86 l39 11 -40 1 c-22 1 -51 -6 -63 -15z"/>
<path d="M6002 334 c-16 -11 -22 -24 -20 -42 5 -42 64 -65 150 -60 56 3 68 1
66 -11 -4 -20 -64 -34 -120 -28 -26 4 -50 2 -53 -4 -10 -16 152 -11 185 6 29
15 30 18 30 85 l0 70 -67 -1 c-63 -1 -65 -2 -33 -11 42 -12 72 -36 68 -56 -5
-25 -86 -43 -133 -30 -75 21 -80 62 -8 84 l38 12 -40 1 c-23 1 -51 -6 -63 -15z"/>
<path d="M6290 337 c-18 -9 -25 -21 -25 -42 0 -24 7 -33 35 -47 55 -28 216
-21 187 8 -4 4 -28 3 -53 -3 -35 -8 -54 -7 -85 3 -21 8 -40 17 -41 22 -2 4 45
8 105 10 59 1 107 6 107 10 -1 28 -47 52 -97 51 l-38 -1 39 -11 c72 -22 56
-37 -38 -37 -67 0 -84 3 -80 13 3 8 22 18 42 24 l37 10 -35 2 c-19 0 -46 -5
-60 -12z"/>
<path d="M7417 334 c-40 -22 -34 -63 13 -86 38 -20 154 -25 180 -8 26 17 2 22
-47 11 -37 -9 -56 -9 -85 1 -66 23 -48 33 65 36 59 1 107 6 107 11 0 4 -9 16
-21 27 -29 26 -171 32 -212 8z m152 -3 c14 -4 26 -12 29 -19 3 -9 -19 -12 -82
-12 -53 0 -86 4 -86 10 0 24 84 37 139 21z"/>
<path d="M7690 290 c0 -47 3 -60 15 -60 10 0 15 10 15 33 0 36 13 58 45 75 17
10 12 11 -27 12 l-48 0 0 -60z"/>
<path d="M7908 295 c58 -85 89 -85 146 0 32 49 34 55 16 55 -10 0 -25 -10 -31
-22 -6 -12 -23 -33 -36 -47 l-24 -26 -34 40 c-19 22 -34 43 -35 48 0 4 -9 7
-20 7 -17 0 -15 -6 18 -55z"/>
<path d="M8207 334 c-41 -22 -34 -63 13 -86 38 -18 136 -24 160 -8 26 16 1 24
-39 12 -29 -9 -46 -9 -72 0 -68 23 -70 63 -2 84 l38 12 -35 1 c-19 0 -48 -7
-63 -15z"/>
<path d="M8321 346 c12 -10 59 -15 59 -6 0 5 -14 10 -32 10 -17 0 -29 -2 -27
-4z"/>
<path d="M8460 337 c-18 -9 -25 -21 -25 -42 0 -24 7 -33 35 -47 56 -28 216
-21 187 8 -4 5 -28 3 -52 -4 -51 -13 -135 2 -135 25 0 9 30 13 111 15 l111 3
-19 24 c-15 18 -31 24 -74 27 l-54 4 44 -13 c77 -21 63 -37 -33 -37 -52 0 -86
4 -86 10 0 6 8 13 18 16 9 3 26 9 37 14 17 7 16 9 -10 9 -16 0 -41 -5 -55 -12z"/>
<path d="M6866 323 c-3 -3 -1 -12 4 -18 12 -14 -3 -30 -35 -38 -19 -4 -19 -5
1 -6 12 0 27 -8 34 -16 10 -12 7 -15 -15 -21 -14 -3 -44 -4 -65 0 -25 4 -40 2
-40 -4 0 -17 135 -12 150 5 10 12 10 18 0 30 -10 12 -10 19 -2 27 7 7 12 15
12 20 0 11 -36 28 -44 21z"/>
</g>
</svg>
