<?xml version="1.0" standalone="no"?>
<!DOCTYPE svg PUBLIC "-//W3C//DTD SVG 20010904//EN"
 "http://www.w3.org/TR/2001/REC-SVG-20010904/DTD/svg10.dtd">
<svg version="1.0" xmlns="http://www.w3.org/2000/svg"
 width="311pt" height="162pt" viewBox="0 0 311 162"
 preserveAspectRatio="xMidYMid meet">

<g transform="translate(0,162) scale(0.1,-0.1)"
fill="#d9d9d9" stroke="none">
<path d="M1519 1451 c-31 -31 -36 -55 -18 -94 11 -25 47 -47 74 -47 45 0 85
43 85 91 0 30 -53 79 -85 79 -16 0 -38 -12 -56 -29z"/>
<path d="M972 1438 c-18 -18 -14 -46 7 -58 25 -13 48 -4 56 21 12 38 -35 65
-63 37z"/>
<path d="M2124 1436 c-15 -40 21 -81 50 -57 21 17 21 57 0 65 -26 10 -44 7
-50 -8z"/>
<path d="M1359 1369 c-25 -9 -49 -45 -49 -73 0 -7 9 -25 21 -40 41 -52 129
-23 129 43 0 54 -50 88 -101 70z"/>
<path d="M1740 1373 c-51 -19 -68 -85 -30 -123 45 -45 123 -13 123 51 0 46
-52 86 -93 72z"/>
<path d="M1076 1334 c-31 -31 -7 -94 35 -94 26 0 59 30 59 54 0 47 -62 73 -94
40z"/>
<path d="M1995 1330 c-41 -46 29 -116 75 -75 24 22 26 58 4 79 -21 22 -57 20
-79 -4z"/>
<path d="M872 1328 c-28 -28 -1 -75 38 -63 14 4 20 15 20 35 0 36 -33 53 -58
28z"/>
<path d="M2233 1334 c-18 -8 -16 -49 3 -65 23 -19 49 1 49 37 0 29 -22 40 -52
28z"/>
<path d="M1521 1223 c-12 -10 -24 -35 -28 -55 -5 -32 -1 -41 26 -69 27 -26 37
-30 64 -25 41 8 77 48 77 87 0 65 -88 104 -139 62z"/>
<path d="M1893 1222 c-27 -4 -53 -38 -53 -69 0 -57 92 -87 124 -41 40 57 -2
121 -71 110z"/>
<path d="M1187 1202 c-22 -25 -21 -75 1 -95 25 -23 78 -21 102 3 24 24 26 57
4 88 -20 28 -83 31 -107 4z"/>
<path d="M963 1174 c-9 -24 10 -49 37 -49 31 0 48 28 31 49 -17 21 -60 21 -68
0z"/>
<path d="M2124 1176 c-12 -31 0 -51 31 -51 27 0 30 3 30 30 0 25 -4 30 -28 33
-17 2 -29 -2 -33 -12z"/>
<path d="M1339 1081 c-49 -40 -18 -131 46 -131 37 0 75 37 75 74 0 64 -71 97
-121 57z"/>
<path d="M1710 1080 c-30 -30 -27 -83 6 -109 30 -24 43 -26 78 -10 33 15 50
57 37 92 -19 48 -85 63 -121 27z"/>
<path d="M1076 1064 c-33 -33 -7 -94 41 -94 25 0 53 30 53 57 0 44 -63 69 -94
37z"/>
<path d="M1993 1054 c-15 -24 -15 -29 -2 -53 28 -49 99 -32 99 24 0 55 -67 75
-97 29z"/>
<path d="M876 1057 c-11 -8 -17 -23 -14 -38 2 -19 9 -24 33 -24 24 0 31 5 33
23 3 22 -13 52 -27 52 -4 0 -15 -6 -25 -13z"/>
<path d="M2236 1057 c-11 -8 -17 -23 -14 -38 2 -19 9 -24 33 -24 24 0 31 5 33
23 3 22 -13 52 -27 52 -4 0 -15 -6 -25 -13z"/>
<path d="M1521 963 c-59 -48 -22 -147 54 -147 74 0 112 88 60 139 -29 30 -83
33 -114 8z"/>
<path d="M1196 949 c-17 -14 -26 -30 -26 -50 0 -65 80 -93 119 -43 27 35 26
59 -4 89 -30 30 -54 31 -89 4z"/>
<path d="M1865 945 c-30 -30 -31 -54 -4 -89 39 -50 119 -22 119 43 0 20 -9 36
-26 50 -35 27 -59 26 -89 -4z"/>
<path d="M970 925 c-26 -32 13 -81 48 -59 23 15 26 38 7 58 -20 20 -39 20 -55
1z"/>
<path d="M2132 928 c-15 -15 -16 -55 -1 -63 21 -14 59 5 59 28 0 24 -17 47
-35 47 -6 0 -16 -5 -23 -12z"/>
<path d="M1070 791 c-16 -31 -12 -59 12 -75 30 -21 44 -20 68 4 24 24 26 53 4
74 -22 23 -71 20 -84 -3z"/>
<path d="M1996 794 c-9 -8 -16 -24 -16 -35 0 -24 34 -59 58 -59 41 0 69 69 40
98 -17 17 -64 15 -82 -4z"/>
<path d="M875 787 c-10 -8 -16 -23 -13 -38 2 -19 9 -24 33 -24 25 0 31 4 33
27 4 34 -26 54 -53 35z"/>
<path d="M2235 787 c-10 -8 -16 -23 -13 -38 2 -19 9 -24 33 -24 25 0 31 4 33
27 4 34 -26 54 -53 35z"/>
<path d="M972 668 c-28 -28 -1 -75 37 -63 11 3 23 15 26 26 12 38 -35 65 -63
37z"/>
<path d="M2124 666 c-15 -40 21 -81 50 -57 21 17 21 57 0 65 -26 10 -44 7 -50
-8z"/>
<path d="M140 305 c0 -123 4 -195 10 -195 6 0 10 69 10 188 l1 187 27 -31 c15
-16 49 -61 76 -99 l48 -68 55 84 c88 136 83 140 83 -68 0 -111 4 -184 10 -188
7 -4 10 62 10 189 l0 196 -23 0 c-18 0 -35 -19 -78 -85 -29 -47 -56 -85 -59
-85 -3 0 -32 39 -65 85 -45 63 -66 85 -82 85 l-23 0 0 -195z"/>
<path d="M550 305 c0 -128 3 -194 10 -190 6 4 10 78 10 190 0 112 -4 186 -10
190 -7 4 -10 -62 -10 -190z"/>
<path d="M724 481 c-57 -26 -74 -66 -74 -179 0 -76 3 -94 23 -123 29 -44 80
-69 139 -69 72 0 66 17 -8 22 -61 4 -69 7 -100 41 -34 36 -34 38 -34 132 0 94
1 96 33 131 30 33 39 36 100 41 36 3 64 10 61 14 -9 16 -98 9 -140 -10z"/>
<path d="M920 304 c0 -127 3 -193 10 -189 6 3 10 42 10 86 l0 80 52 -3 52 -3
50 -82 c47 -77 66 -98 66 -73 0 5 -20 41 -45 80 -25 39 -45 72 -45 74 0 2 13
9 28 15 82 34 80 162 -3 197 -19 8 -66 14 -105 14 l-70 0 0 -196z m186 142
c37 -31 38 -84 4 -121 -21 -22 -31 -25 -97 -25 l-73 0 0 85 0 85 69 0 c59 0
74 -4 97 -24z"/>
<path d="M1306 489 c-37 -10 -66 -36 -82 -76 -18 -42 -18 -174 0 -217 30 -71
106 -100 179 -68 64 29 80 68 75 193 -3 95 -4 100 -34 130 -35 34 -92 50 -138
38z m122 -55 c31 -33 32 -35 32 -129 0 -91 -1 -95 -31 -129 -38 -44 -83 -54
-131 -32 -54 26 -68 60 -68 165 0 86 1 92 30 125 50 56 114 56 168 0z"/>
<path d="M1652 490 c-104 -6 -122 -17 -122 -73 0 -31 17 -50 143 -164 87 -80
76 -101 -53 -105 -71 -3 -85 -6 -88 -20 -3 -16 6 -18 86 -18 109 0 142 18 142
78 0 31 -8 43 -62 94 -35 33 -78 71 -95 85 -23 18 -33 34 -33 53 0 35 13 40
111 40 62 0 79 3 79 14 0 21 -5 22 -108 16z"/>
<path d="M2670 375 c0 -136 -11 -180 -51 -209 -46 -32 -124 -11 -147 39 -7 16
-12 76 -12 155 0 123 -1 130 -20 130 -19 0 -20 -7 -20 -131 0 -148 12 -188 64
-220 63 -38 161 -17 191 41 18 34 22 304 5 315 -6 4 -10 -38 -10 -120z"/>
<path d="M1810 300 l0 -191 118 3 c96 2 117 6 117 18 0 12 -19 16 -102 18
l-103 3 0 74 0 74 93 3 c74 2 92 6 92 18 0 12 -18 16 -92 18 l-93 3 0 59 0 60
105 0 c87 0 105 3 105 15 0 13 -20 15 -120 15 l-120 0 0 -190z"/>
<path d="M2143 470 c-53 -32 -65 -68 -61 -182 l3 -100 37 -34 c33 -29 45 -34
89 -34 93 0 139 48 139 145 l0 56 -42 -3 c-50 -4 -61 -31 -15 -36 21 -3 27 -8
27 -29 0 -75 -82 -125 -153 -92 -40 18 -57 59 -57 141 0 85 20 127 69 147 40
17 76 7 113 -30 29 -29 48 -31 48 -4 0 7 -16 27 -35 44 -29 25 -44 31 -83 31
-29 0 -59 -8 -79 -20z"/>
<path d="M2762 305 c2 -113 7 -186 13 -188 6 -1 12 30 15 73 l5 75 45 3 45 2
48 -80 c27 -44 52 -80 57 -80 25 0 17 28 -24 90 l-45 69 34 20 c45 26 62 84
41 134 -23 56 -48 67 -148 67 l-88 0 2 -185z m182 134 c49 -38 27 -118 -37
-134 -13 -4 -43 -5 -68 -3 l-44 3 -3 78 -3 77 64 0 c50 0 70 -5 91 -21z"/>
</g>
</svg>
